<svg version="1.1" xmlns="http://www.w3.org/2000/svg" viewBox="0 0 2119.6142216485646 877.1098728388547" width="2119.6142216485646" height="877.1098728388547">
  <!-- svg-source:excalidraw -->
  
  <defs>
    <style>
      @font-face {
        font-family: "Virgil";
        src: url("https://excalidraw.com/Virgil.woff2");
      }
      @font-face {
        font-family: "Cascadia";
        src: url("https://excalidraw.com/Cascadia.woff2");
      }
    </style>
  </defs>
  <rect x="0" y="0" width="2119.6142216485646" height="877.1098728388547" fill="#ffffff"></rect><g transform="translate(1167.6142216485646 72) rotate(0 471 312)"><text x="0" y="17" font-family="Helvetica, Segoe UI Emoji" font-size="20px" fill="#000000" text-anchor="start" style="white-space: pre;" direction="ltr">1. Operator Start</text><text x="0" y="41" font-family="Helvetica, Segoe UI Emoji" font-size="20px" fill="#000000" text-anchor="start" style="white-space: pre;" direction="ltr">    - A shared FluxManager and Scheduler are created</text><text x="0" y="65" font-family="Helvetica, Segoe UI Emoji" font-size="20px" fill="#000000" text-anchor="start" style="white-space: pre;" direction="ltr">    - The FluxManager is shared by all controllers</text><text x="0" y="89" font-family="Helvetica, Segoe UI Emoji" font-size="20px" fill="#000000" text-anchor="start" style="white-space: pre;" direction="ltr"></text><text x="0" y="113" font-family="Helvetica, Segoe UI Emoji" font-size="20px" fill="#000000" text-anchor="start" style="white-space: pre;" direction="ltr">2. Creating the FluxSetup creates the FluxManager Queue according to spec</text><text x="0" y="137" font-family="Helvetica, Segoe UI Emoji" font-size="20px" fill="#000000" text-anchor="start" style="white-space: pre;" direction="ltr"> -  Reconcile of FluxSetup should always update current state of cluster (not done yet). </text><text x="0" y="161" font-family="Helvetica, Segoe UI Emoji" font-size="20px" fill="#000000" text-anchor="start" style="white-space: pre;" direction="ltr"></text><text x="0" y="185" font-family="Helvetica, Segoe UI Emoji" font-size="20px" fill="#000000" text-anchor="start" style="white-space: pre;" direction="ltr">3. A FluxJob is submit (e.g., by a user) requesting a MiniCluster</text><text x="0" y="209" font-family="Helvetica, Segoe UI Emoji" font-size="20px" fill="#000000" text-anchor="start" style="white-space: pre;" direction="ltr">  - Job reconciles, waits to be in Waiting queue, updates status requested -&gt; waiting</text><text x="0" y="233" font-family="Helvetica, Segoe UI Emoji" font-size="20px" fill="#000000" text-anchor="start" style="white-space: pre;" direction="ltr"></text><text x="0" y="257" font-family="Helvetica, Segoe UI Emoji" font-size="20px" fill="#000000" text-anchor="start" style="white-space: pre;" direction="ltr">4. The FluxSetup is watching for the Create event</text><text x="0" y="281" font-family="Helvetica, Segoe UI Emoji" font-size="20px" fill="#000000" text-anchor="start" style="white-space: pre;" direction="ltr">  - When it sees a new job, adds to the manager queue (waiting jobs)</text><text x="0" y="305" font-family="Helvetica, Segoe UI Emoji" font-size="20px" fill="#000000" text-anchor="start" style="white-space: pre;" direction="ltr"></text><text x="0" y="329" font-family="Helvetica, Segoe UI Emoji" font-size="20px" fill="#000000" text-anchor="start" style="white-space: pre;" direction="ltr">5. The scheduler + FluxSetup move waiting to running when resources available</text><text x="0" y="353" font-family="Helvetica, Segoe UI Emoji" font-size="20px" fill="#000000" text-anchor="start" style="white-space: pre;" direction="ltr"></text><text x="0" y="377" font-family="Helvetica, Segoe UI Emoji" font-size="20px" fill="#000000" text-anchor="start" style="white-space: pre;" direction="ltr">6. FluxJob reconcile is continually running, and controls the lifecycle of the MiniCluster</text><text x="0" y="401" font-family="Helvetica, Segoe UI Emoji" font-size="20px" fill="#000000" text-anchor="start" style="white-space: pre;" direction="ltr"></text><text x="0" y="425" font-family="Helvetica, Segoe UI Emoji" font-size="20px" fill="#000000" text-anchor="start" style="white-space: pre;" direction="ltr"> - If a job is waiting, this could mean two things.</text><text x="0" y="449" font-family="Helvetica, Segoe UI Emoji" font-size="20px" fill="#000000" text-anchor="start" style="white-space: pre;" direction="ltr">   - It's in the queue heap (allowed to run), and we create the MiniCluster, update status to Ready</text><text x="0" y="473" font-family="Helvetica, Segoe UI Emoji" font-size="20px" fill="#000000" text-anchor="start" style="white-space: pre;" direction="ltr">   - It's still waiting, we ask to reconcile until we see it's allowed to run</text><text x="0" y="497" font-family="Helvetica, Segoe UI Emoji" font-size="20px" fill="#000000" text-anchor="start" style="white-space: pre;" direction="ltr"> </text><text x="0" y="521" font-family="Helvetica, Segoe UI Emoji" font-size="20px" fill="#000000" text-anchor="start" style="white-space: pre;" direction="ltr">- If a job is ready, it just had its MiniCluster created! At this point we need to "launch" our job (not done yet).</text><text x="0" y="545" font-family="Helvetica, Segoe UI Emoji" font-size="20px" fill="#000000" text-anchor="start" style="white-space: pre;" direction="ltr">- If a job is running, we need to check to see if it's finished, and flag as finished if cluster reflects that</text><text x="0" y="569" font-family="Helvetica, Segoe UI Emoji" font-size="20px" fill="#000000" text-anchor="start" style="white-space: pre;" direction="ltr">- If it's not finished, we keep the status as running and re-reconcile.</text><text x="0" y="593" font-family="Helvetica, Segoe UI Emoji" font-size="20px" fill="#000000" text-anchor="start" style="white-space: pre;" direction="ltr">- If the job is finished, we need to clean up</text><text x="0" y="617" font-family="Helvetica, Segoe UI Emoji" font-size="20px" fill="#000000" text-anchor="start" style="white-space: pre;" direction="ltr">- When we reach the bottom of the loop, we don't need to reconcile again.</text></g><g stroke-linecap="round" transform="translate(526.1142216485646 461.5) rotate(0 114 165.5)"><path d="M57 0 M57 0 C90.16 0.76, 120.07 1.06, 171 0 M57 0 C96.44 0.41, 136.77 1.12, 171 0 M171 0 C210.34 1.02, 226.01 18.43, 228 57 M171 0 C209.47 0.07, 228.09 20.35, 228 57 M228 57 C228.7 106.45, 231.02 154.84, 228 274 M228 57 C227.83 119, 228.83 181.72, 228 274 M228 274 C228.96 311.71, 210.58 332.87, 171 331 M228 274 C227.81 313.47, 208.17 329.2, 171 331 M171 331 C130.53 328.33, 91.48 328.41, 57 331 M171 331 C137.68 330.01, 103.7 330.63, 57 331 M57 331 C19.44 330.68, -1.67 312.24, 0 274 M57 331 C17.21 332.34, -1.35 310.47, 0 274 M0 274 C-0.2 224.89, 0.79 175.41, 0 57 M0 274 C2.12 229.28, 1.68 184.47, 0 57 M0 57 C-0.23 20.92, 20.15 -1.09, 57 0 M0 57 C1.73 18.92, 18.88 -1.79, 57 0" stroke="#364fc7" stroke-width="1" fill="none"></path></g><g transform="translate(587.1142216485646 806.5) rotate(0 54 12.5)"><text x="0" y="18" font-family="Virgil, Segoe UI Emoji" font-size="20px" fill="#364fc7" text-anchor="start" style="white-space: pre;" direction="ltr">Kubernetes</text></g><g stroke-linecap="round" transform="translate(506.1142216485646 321.5) rotate(0 53 49.5)"><path d="M66.7 0.9 C74.94 2.08, 84.38 7.73, 90.79 13.84 C97.19 19.94, 102.82 29.59, 105.13 37.53 C107.44 45.47, 107.17 53.6, 104.65 61.49 C102.14 69.37, 96.41 78.85, 90.06 84.83 C83.71 90.82, 74.96 95.44, 66.57 97.4 C58.17 99.35, 48.07 98.89, 39.69 96.56 C31.31 94.23, 22.67 89.17, 16.26 83.41 C9.85 77.64, 3.49 69.94, 1.22 61.97 C-1.05 54, 0.25 43.5, 2.64 35.58 C5.03 27.66, 9.55 20.2, 15.55 14.47 C21.55 8.75, 29.41 2.99, 38.63 1.24 C47.84 -0.51, 64.79 3.07, 70.85 3.95 C76.91 4.82, 75.17 5.7, 74.98 6.48 M76.32 4.12 C84.3 6.73, 93.38 14.6, 98.08 21.63 C102.78 28.66, 104.35 37.89, 104.52 46.29 C104.7 54.69, 103.05 64.6, 99.12 72.03 C95.18 79.46, 88.26 86.4, 80.91 90.86 C73.56 95.33, 63.46 98.55, 55 98.8 C46.53 99.05, 37.68 96.11, 30.12 92.35 C22.55 88.58, 14.56 82.93, 9.61 76.22 C4.66 69.5, 1.28 60.2, 0.41 52.06 C-0.45 43.93, 0.69 34.59, 4.42 27.4 C8.15 20.22, 15.32 13.7, 22.77 8.98 C30.22 4.26, 40.28 -0.14, 49.12 -0.92 C57.96 -1.7, 71.21 3.33, 75.81 4.3 C80.4 5.28, 76.79 4.09, 76.69 4.93" stroke="#e67700" stroke-width="1" fill="none"></path></g><g stroke-linecap="round" transform="translate(400.1142216485646 320.5) rotate(0 53 49.5)"><path d="M66.12 1.93 C74.23 3.48, 83.4 9.64, 89.87 15.56 C96.33 21.47, 102.72 29.64, 104.93 37.43 C107.14 45.21, 105.54 54.37, 103.13 62.25 C100.73 70.13, 96.61 78.75, 90.5 84.7 C84.4 90.65, 75.21 95.72, 66.51 97.96 C57.82 100.2, 47.02 100.48, 38.33 98.12 C29.64 95.76, 20.5 89.67, 14.37 83.79 C8.25 77.92, 3.81 70.78, 1.57 62.87 C-0.67 54.97, -1.44 44.59, 0.93 36.36 C3.3 28.13, 9.43 19.44, 15.8 13.5 C22.16 7.56, 29.38 2.48, 39.12 0.71 C48.87 -1.06, 67.52 1.74, 74.29 2.87 C81.05 4, 80.05 6.41, 79.72 7.49 M49.68 0.79 C57.75 -0.38, 68.94 0.77, 76.89 4.27 C84.84 7.78, 92.5 14.81, 97.38 21.82 C102.27 28.83, 105.79 38.07, 106.21 46.34 C106.63 54.62, 104.07 63.83, 99.9 71.49 C95.74 79.15, 88.9 87.57, 81.22 92.3 C73.53 97.04, 62.67 99.67, 53.79 99.9 C44.92 100.12, 35.59 97.86, 27.96 93.66 C20.32 89.47, 12.59 81.94, 7.97 74.71 C3.35 67.49, 0.4 58.52, 0.23 50.34 C0.06 42.16, 3.03 32.91, 6.94 25.63 C10.84 18.34, 16.51 10.84, 23.66 6.62 C30.81 2.41, 45.53 1.17, 49.86 0.36 C54.19 -0.45, 49.51 0.8, 49.64 1.77" stroke="#e67700" stroke-width="1" fill="none"></path></g><g transform="translate(511.1142216485646 358.5) rotate(0 48 12.5)"><text x="48" y="18" font-family="Virgil, Segoe UI Emoji" font-size="20px" fill="#0b7285" text-anchor="middle" style="white-space: pre;" direction="ltr">Reconcile</text></g><g stroke-linecap="round" transform="translate(160.11422164856458 119.5) rotate(0 40.5 52)"><path d="M20.25 0 M20.25 0 C32.88 0.44, 47.29 1.86, 60.75 0 M20.25 0 C34.83 0.61, 50.02 0.44, 60.75 0 M60.75 0 C75.43 -1.42, 82.74 4.81, 81 20.25 M60.75 0 C73.01 -0.39, 82.81 4.59, 81 20.25 M81 20.25 C80.26 36.8, 82.55 55, 81 83.75 M81 20.25 C81.84 42.27, 81.55 64.09, 81 83.75 M81 83.75 C79.43 98.25, 73.28 102.14, 60.75 104 M81 83.75 C80.38 95.39, 74.63 102.23, 60.75 104 M60.75 104 C49.98 102.16, 37.87 103.4, 20.25 104 M60.75 104 C47.84 102.88, 35.26 103.08, 20.25 104 M20.25 104 C5.42 102.61, -1.32 97.67, 0 83.75 M20.25 104 C4.83 105.13, -0.61 99.02, 0 83.75 M0 83.75 C1.86 70.83, 0.85 57.72, 0 20.25 M0 83.75 C-1.15 66.17, -0.64 47.03, 0 20.25 M0 20.25 C-1.55 6.7, 4.87 0.35, 20.25 0 M0 20.25 C-1.93 8.25, 6.32 -1.07, 20.25 0" stroke="#d9480f" stroke-width="1" fill="none"></path></g><g transform="translate(177.11422164856458 157.5) rotate(0 21.5 13)"><text x="0" y="18" font-family="Virgil, Segoe UI Emoji" font-size="20px" fill="#d9480f" text-anchor="start" style="white-space: pre;" direction="ltr">CRD</text></g><g transform="translate(161.11422164856458 80.5) rotate(0 37 13)"><text x="0" y="18" font-family="Virgil, Segoe UI Emoji" font-size="20px" fill="#000000" text-anchor="start" style="white-space: pre;" direction="ltr">FluxJob</text></g><g stroke-linecap="round" transform="translate(217.11422164856458 262.5) rotate(34.26110289909455 106 18)"><path d="M111.84 -1.93 C126.08 -1.93, 141.05 0.53, 154.57 1.76 C168.09 2.99, 183.71 3.26, 192.95 5.45 C202.18 7.64, 207.68 12.13, 209.97 14.87 C212.25 17.61, 210.94 19.15, 206.68 21.88 C202.42 24.61, 194.49 28.98, 184.43 31.24 C174.36 33.51, 160.07 34.41, 146.26 35.47 C132.46 36.52, 116.28 37.85, 101.6 37.57 C86.93 37.28, 71.5 35.34, 58.21 33.74 C44.93 32.14, 31.57 29.85, 21.91 27.95 C12.25 26.05, 3.46 25.08, 0.25 22.33 C-2.95 19.58, -1.48 14.41, 2.67 11.46 C6.83 8.51, 14.97 6.54, 25.2 4.63 C35.44 2.71, 43.53 0.7, 64.07 -0.04 C84.62 -0.79, 129.24 -0.98, 148.46 0.17 C167.68 1.32, 180.37 6.13, 179.37 6.83" stroke="#d9480f" stroke-width="1.5" fill="none" stroke-dasharray="1.5 7"></path></g><g transform="translate(405.1142216485646 357.5) rotate(0 48 12.5)"><text x="48" y="18" font-family="Virgil, Segoe UI Emoji" font-size="20px" fill="#d9480f" text-anchor="middle" style="white-space: pre;" direction="ltr">Reconcile</text></g><g stroke-linecap="round" transform="translate(549.6142216485646 510) rotate(0 19 7)"><path d="M3.5 0 M3.5 0 C12.92 0, 22.34 0, 34.5 0 M3.5 0 C15.24 0, 26.99 0, 34.5 0 M34.5 0 C36.83 0, 38 1.17, 38 3.5 M34.5 0 C36.83 0, 38 1.17, 38 3.5 M38 3.5 C38 5.35, 38 7.2, 38 10.5 M38 3.5 C38 5.72, 38 7.93, 38 10.5 M38 10.5 C38 12.83, 36.83 14, 34.5 14 M38 10.5 C38 12.83, 36.83 14, 34.5 14 M34.5 14 C27.01 14, 19.53 14, 3.5 14 M34.5 14 C26.02 14, 17.54 14, 3.5 14 M3.5 14 C1.17 14, 0 12.83, 0 10.5 M3.5 14 C1.17 14, 0 12.83, 0 10.5 M0 10.5 C0 8.44, 0 6.37, 0 3.5 M0 10.5 C0 8.53, 0 6.56, 0 3.5 M0 3.5 C0 1.17, 1.17 0, 3.5 0 M0 3.5 C0 1.17, 1.17 0, 3.5 0" stroke="#0b7285" stroke-width="1" fill="none"></path></g><g stroke-linecap="round" transform="translate(549.6142216485646 493) rotate(0 19 7)"><path d="M3.5 0 M3.5 0 C14.62 0, 25.75 0, 34.5 0 M3.5 0 C9.89 0, 16.27 0, 34.5 0 M34.5 0 C36.83 0, 38 1.17, 38 3.5 M34.5 0 C36.83 0, 38 1.17, 38 3.5 M38 3.5 C38 5.05, 38 6.6, 38 10.5 M38 3.5 C38 5.06, 38 6.63, 38 10.5 M38 10.5 C38 12.83, 36.83 14, 34.5 14 M38 10.5 C38 12.83, 36.83 14, 34.5 14 M34.5 14 C27.27 14, 20.04 14, 3.5 14 M34.5 14 C22.82 14, 11.14 14, 3.5 14 M3.5 14 C1.17 14, 0 12.83, 0 10.5 M3.5 14 C1.17 14, 0 12.83, 0 10.5 M0 10.5 C0 8.94, 0 7.39, 0 3.5 M0 10.5 C0 8.72, 0 6.95, 0 3.5 M0 3.5 C0 1.17, 1.17 0, 3.5 0 M0 3.5 C0 1.17, 1.17 0, 3.5 0" stroke="#0b7285" stroke-width="1" fill="none"></path></g><g stroke-linecap="round" transform="translate(589.6142216485646 492) rotate(0 19 7)"><path d="M3.5 0 M3.5 0 C10.61 0, 17.71 0, 34.5 0 M3.5 0 C12.47 0, 21.44 0, 34.5 0 M34.5 0 C36.83 0, 38 1.17, 38 3.5 M34.5 0 C36.83 0, 38 1.17, 38 3.5 M38 3.5 C38 5.95, 38 8.4, 38 10.5 M38 3.5 C38 5.59, 38 7.67, 38 10.5 M38 10.5 C38 12.83, 36.83 14, 34.5 14 M38 10.5 C38 12.83, 36.83 14, 34.5 14 M34.5 14 C27.36 14, 20.22 14, 3.5 14 M34.5 14 C28.1 14, 21.7 14, 3.5 14 M3.5 14 C1.17 14, 0 12.83, 0 10.5 M3.5 14 C1.17 14, 0 12.83, 0 10.5 M0 10.5 C0 8.42, 0 6.33, 0 3.5 M0 10.5 C0 7.94, 0 5.39, 0 3.5 M0 3.5 C0 1.17, 1.17 0, 3.5 0 M0 3.5 C0 1.17, 1.17 0, 3.5 0" stroke="#0b7285" stroke-width="1" fill="none"></path></g><g stroke-linecap="round" transform="translate(590.6142216485646 509) rotate(0 19 7)"><path d="M3.5 0 M3.5 0 C15.5 0, 27.5 0, 34.5 0 M3.5 0 C13.1 0, 22.7 0, 34.5 0 M34.5 0 C36.83 0, 38 1.17, 38 3.5 M34.5 0 C36.83 0, 38 1.17, 38 3.5 M38 3.5 C38 5.26, 38 7.02, 38 10.5 M38 3.5 C38 5.13, 38 6.76, 38 10.5 M38 10.5 C38 12.83, 36.83 14, 34.5 14 M38 10.5 C38 12.83, 36.83 14, 34.5 14 M34.5 14 C27.25 14, 20 14, 3.5 14 M34.5 14 C27.72 14, 20.94 14, 3.5 14 M3.5 14 C1.17 14, 0 12.83, 0 10.5 M3.5 14 C1.17 14, 0 12.83, 0 10.5 M0 10.5 C0 9.06, 0 7.62, 0 3.5 M0 10.5 C0 8.23, 0 5.97, 0 3.5 M0 3.5 C0 1.17, 1.17 0, 3.5 0 M0 3.5 C0 1.17, 1.17 0, 3.5 0" stroke="#0b7285" stroke-width="1" fill="none"></path></g><g stroke-linecap="round" transform="translate(540.6142216485646 479) rotate(0 47.5 75.5)"><path d="M23.75 0 M23.75 0 C33.38 0, 43.01 0, 71.25 0 M23.75 0 C34.03 0, 44.3 0, 71.25 0 M71.25 0 C87.08 0, 95 7.92, 95 23.75 M71.25 0 C87.08 0, 95 7.92, 95 23.75 M95 23.75 C95 45.19, 95 66.64, 95 127.25 M95 23.75 C95 53.98, 95 84.2, 95 127.25 M95 127.25 C95 143.08, 87.08 151, 71.25 151 M95 127.25 C95 143.08, 87.08 151, 71.25 151 M71.25 151 C56 151, 40.74 151, 23.75 151 M71.25 151 C61.62 151, 51.98 151, 23.75 151 M23.75 151 C7.92 151, 0 143.08, 0 127.25 M23.75 151 C7.92 151, 0 143.08, 0 127.25 M0 127.25 C0 94.4, 0 61.54, 0 23.75 M0 127.25 C0 102.22, 0 77.19, 0 23.75 M0 23.75 C0 7.92, 7.92 0, 23.75 0 M0 23.75 C0 7.92, 7.92 0, 23.75 0" stroke="#5c940d" stroke-width="1" fill="none"></path></g><g transform="translate(545.6142216485646 529.5) rotate(0 42.5 25)"><text x="42.5" y="18" font-family="Virgil, Segoe UI Emoji" font-size="20px" fill="#5c940d" text-anchor="middle" style="white-space: pre;" direction="ltr">Mini-Flux</text><text x="42.5" y="43" font-family="Virgil, Segoe UI Emoji" font-size="20px" fill="#5c940d" text-anchor="middle" style="white-space: pre;" direction="ltr">cluster</text></g><g stroke-linecap="round" transform="translate(649.6142216485646 511) rotate(0 19 7)"><path d="M3.5 0 M3.5 0 C12.28 0, 21.05 0, 34.5 0 M3.5 0 C9.97 0, 16.43 0, 34.5 0 M34.5 0 C36.83 0, 38 1.17, 38 3.5 M34.5 0 C36.83 0, 38 1.17, 38 3.5 M38 3.5 C38 5.04, 38 6.57, 38 10.5 M38 3.5 C38 4.97, 38 6.44, 38 10.5 M38 10.5 C38 12.83, 36.83 14, 34.5 14 M38 10.5 C38 12.83, 36.83 14, 34.5 14 M34.5 14 C23.68 14, 12.85 14, 3.5 14 M34.5 14 C24.9 14, 15.29 14, 3.5 14 M3.5 14 C1.17 14, 0 12.83, 0 10.5 M3.5 14 C1.17 14, 0 12.83, 0 10.5 M0 10.5 C0 7.94, 0 5.39, 0 3.5 M0 10.5 C0 7.91, 0 5.32, 0 3.5 M0 3.5 C0 1.17, 1.17 0, 3.5 0 M0 3.5 C0 1.17, 1.17 0, 3.5 0" stroke="#0b7285" stroke-width="1" fill="none"></path></g><g stroke-linecap="round" transform="translate(649.6142216485646 494) rotate(0 19 7)"><path d="M3.5 0 M3.5 0 C15.24 0, 26.99 0, 34.5 0 M3.5 0 C15.1 0, 26.7 0, 34.5 0 M34.5 0 C36.83 0, 38 1.17, 38 3.5 M34.5 0 C36.83 0, 38 1.17, 38 3.5 M38 3.5 C38 5.72, 38 7.93, 38 10.5 M38 3.5 C38 6.04, 38 8.57, 38 10.5 M38 10.5 C38 12.83, 36.83 14, 34.5 14 M38 10.5 C38 12.83, 36.83 14, 34.5 14 M34.5 14 C26.02 14, 17.54 14, 3.5 14 M34.5 14 C24.68 14, 14.87 14, 3.5 14 M3.5 14 C1.17 14, 0 12.83, 0 10.5 M3.5 14 C1.17 14, 0 12.83, 0 10.5 M0 10.5 C0 8.53, 0 6.56, 0 3.5 M0 10.5 C0 8, 0 5.5, 0 3.5 M0 3.5 C0 1.17, 1.17 0, 3.5 0 M0 3.5 C0 1.17, 1.17 0, 3.5 0" stroke="#0b7285" stroke-width="1" fill="none"></path></g><g stroke-linecap="round" transform="translate(689.6142216485646 493) rotate(0 19 7)"><path d="M3.5 0 M3.5 0 C9.89 0, 16.27 0, 34.5 0 M3.5 0 C9.7 0, 15.91 0, 34.5 0 M34.5 0 C36.83 0, 38 1.17, 38 3.5 M34.5 0 C36.83 0, 38 1.17, 38 3.5 M38 3.5 C38 5.06, 38 6.63, 38 10.5 M38 3.5 C38 5.4, 38 7.3, 38 10.5 M38 10.5 C38 12.83, 36.83 14, 34.5 14 M38 10.5 C38 12.83, 36.83 14, 34.5 14 M34.5 14 C22.82 14, 11.14 14, 3.5 14 M34.5 14 C24.89 14, 15.29 14, 3.5 14 M3.5 14 C1.17 14, 0 12.83, 0 10.5 M3.5 14 C1.17 14, 0 12.83, 0 10.5 M0 10.5 C0 8.72, 0 6.95, 0 3.5 M0 10.5 C0 7.92, 0 5.33, 0 3.5 M0 3.5 C0 1.17, 1.17 0, 3.5 0 M0 3.5 C0 1.17, 1.17 0, 3.5 0" stroke="#0b7285" stroke-width="1" fill="none"></path></g><g stroke-linecap="round" transform="translate(690.6142216485646 510) rotate(0 19 7)"><path d="M3.5 0 M3.5 0 C12.47 0, 21.44 0, 34.5 0 M3.5 0 C14.29 0, 25.08 0, 34.5 0 M34.5 0 C36.83 0, 38 1.17, 38 3.5 M34.5 0 C36.83 0, 38 1.17, 38 3.5 M38 3.5 C38 5.59, 38 7.67, 38 10.5 M38 3.5 C38 5.75, 38 8.01, 38 10.5 M38 10.5 C38 12.83, 36.83 14, 34.5 14 M38 10.5 C38 12.83, 36.83 14, 34.5 14 M34.5 14 C28.1 14, 21.7 14, 3.5 14 M34.5 14 C25.55 14, 16.6 14, 3.5 14 M3.5 14 C1.17 14, 0 12.83, 0 10.5 M3.5 14 C1.17 14, 0 12.83, 0 10.5 M0 10.5 C0 7.94, 0 5.39, 0 3.5 M0 10.5 C0 7.95, 0 5.41, 0 3.5 M0 3.5 C0 1.17, 1.17 0, 3.5 0 M0 3.5 C0 1.17, 1.17 0, 3.5 0" stroke="#0b7285" stroke-width="1" fill="none"></path></g><g stroke-linecap="round" transform="translate(641.6142216485646 481) rotate(0 47.5 75.5)"><path d="M23.75 0 M23.75 0 C38.46 0, 53.17 0, 71.25 0 M23.75 0 C37.3 0, 50.85 0, 71.25 0 M71.25 0 C87.08 0, 95 7.92, 95 23.75 M71.25 0 C87.08 0, 95 7.92, 95 23.75 M95 23.75 C95 47.86, 95 71.97, 95 127.25 M95 23.75 C95 53.12, 95 82.49, 95 127.25 M95 127.25 C95 143.08, 87.08 151, 71.25 151 M95 127.25 C95 143.08, 87.08 151, 71.25 151 M71.25 151 C60.86 151, 50.47 151, 23.75 151 M71.25 151 C52.45 151, 33.64 151, 23.75 151 M23.75 151 C7.92 151, 0 143.08, 0 127.25 M23.75 151 C7.92 151, 0 143.08, 0 127.25 M0 127.25 C0 93.75, 0 60.25, 0 23.75 M0 127.25 C0 96.86, 0 66.47, 0 23.75 M0 23.75 C0 7.92, 7.92 0, 23.75 0 M0 23.75 C0 7.92, 7.92 0, 23.75 0" stroke="#5c940d" stroke-width="1" fill="none"></path></g><g transform="translate(646.6142216485646 531.5) rotate(0 42.5 25)"><text x="42.5" y="18" font-family="Virgil, Segoe UI Emoji" font-size="20px" fill="#5c940d" text-anchor="middle" style="white-space: pre;" direction="ltr">Mini-Flux</text><text x="42.5" y="43" font-family="Virgil, Segoe UI Emoji" font-size="20px" fill="#5c940d" text-anchor="middle" style="white-space: pre;" direction="ltr">cluster</text></g><g transform="translate(254.11422164856458 131) rotate(0 33.5 31.5)"><text x="0" y="15" font-family="Virgil, Segoe UI Emoji" font-size="16px" fill="#5c940d" text-anchor="start" style="white-space: pre;" direction="ltr">Size</text><text x="0" y="36" font-family="Virgil, Segoe UI Emoji" font-size="16px" fill="#5c940d" text-anchor="start" style="white-space: pre;" direction="ltr">Command</text><text x="0" y="57" font-family="Virgil, Segoe UI Emoji" font-size="16px" fill="#5c940d" text-anchor="start" style="white-space: pre;" direction="ltr">Status</text></g><g stroke-linecap="round" transform="translate(54.11422164856458 76.5) rotate(0 27 26.5)"><path d="M24.93 0.71 C30.2 -0.31, 37.64 1.09, 42.43 4.22 C47.22 7.35, 52.35 13.92, 53.68 19.51 C55 25.1, 53.12 32.54, 50.38 37.76 C47.65 42.98, 42.52 48.47, 37.27 50.84 C32.02 53.21, 24.43 53.57, 18.89 51.98 C13.34 50.39, 7.02 46.16, 4 41.32 C0.99 36.48, -0.01 28.61, 0.79 22.93 C1.58 17.24, 4.21 11.07, 8.8 7.22 C13.38 3.38, 24.71 0.9, 28.27 -0.14 C31.83 -1.19, 30.34 0.38, 30.16 0.95 M18.22 1.44 C23.34 -0.14, 30.98 0.51, 36.4 2.89 C41.81 5.26, 48.13 10.97, 50.71 15.72 C53.29 20.46, 53.38 25.84, 51.88 31.35 C50.38 36.85, 46.08 45.09, 41.71 48.74 C37.33 52.38, 31.13 53.72, 25.63 53.21 C20.12 52.69, 12.66 49.43, 8.66 45.64 C4.66 41.85, 2.47 35.91, 1.63 30.49 C0.78 25.07, 0.67 18.01, 3.6 13.11 C6.52 8.2, 16.72 2.96, 19.16 1.05 C21.59 -0.87, 18.3 1.12, 18.2 1.6" stroke="#000000" stroke-width="1" fill="none"></path></g><g transform="translate(79.11422164856458 129.5) rotate(0 -11 42)" stroke="none"><path fill="#000000" d="M 2.11,-1.05 Q 2.11,-1.05 2.72,0.09 3.32,1.24 3.68,2.90 4.04,4.56 4.05,6.74 4.06,8.91 4.13,10.36 4.19,11.81 4.18,13.59 4.16,15.37 4.30,17.14 4.43,18.91 4.46,21.32 4.49,23.74 4.51,24.96 4.54,26.19 4.54,27.57 4.54,28.95 4.62,30.49 4.71,32.02 4.78,33.12 4.85,34.21 4.93,35.73 5.02,37.25 5.08,38.75 5.15,40.26 5.15,41.36 5.16,42.47 4.71,43.66 4.25,44.84 3.74,45.98 3.23,47.11 2.35,48.07 1.47,49.03 0.30,50.25 -0.86,51.47 -1.82,52.86 -2.77,54.25 -3.76,55.71 -4.75,57.17 -5.69,59.12 -6.64,61.06 -7.91,63.09 -9.17,65.12 -10.58,67.33 -11.99,69.53 -13.23,71.45 -14.47,73.38 -15.11,74.95 -15.75,76.53 -17.01,78.15 -18.28,79.78 -19.10,81.07 -19.92,82.36 -20.40,83.61 -20.87,84.86 -21.13,85.31 -21.38,85.77 -21.77,86.12 -22.16,86.47 -22.64,86.68 -23.12,86.89 -23.64,86.93 -24.16,86.98 -24.66,86.85 -25.17,86.73 -25.61,86.45 -26.05,86.17 -26.38,85.76 -26.71,85.36 -26.89,84.87 -27.08,84.38 -27.09,83.86 -27.11,83.34 -26.96,82.84 -26.81,82.34 -26.50,81.91 -26.20,81.49 -25.78,81.18 -25.36,80.87 -24.86,80.72 -24.36,80.56 -23.84,80.57 -23.31,80.59 -22.82,80.76 -22.33,80.94 -21.92,81.27 -21.52,81.59 -21.23,82.03 -20.95,82.47 -20.82,82.98 -20.69,83.48 -20.73,84.00 -20.77,84.52 -20.98,85.00 -21.18,85.48 -21.53,85.87 -21.88,86.27 -22.33,86.52 -22.78,86.78 -23.30,86.88 -23.81,86.98 -24.33,86.92 -24.84,86.85 -25.31,86.62 -25.78,86.39 -26.15,86.02 -26.52,85.65 -26.76,85.19 -26.99,84.72 -27.06,84.20 -27.14,83.68 -27.04,83.17 -26.94,82.66 -26.94,82.66 -26.94,82.66 -25.24,79.83 -23.53,77.00 -22.73,76.08 -21.93,75.17 -21.16,73.88 -20.39,72.59 -19.28,70.47 -18.16,68.36 -17.63,67.24 -17.10,66.13 -16.40,64.92 -15.71,63.71 -14.84,61.90 -13.97,60.09 -13.12,58.97 -12.28,57.85 -11.98,56.37 -11.68,54.89 -10.45,53.54 -9.21,52.18 -8.45,51.05 -7.70,49.91 -7.16,48.95 -6.61,47.98 -5.55,46.90 -4.48,45.82 -3.22,44.62 -1.97,43.41 -1.56,41.83 -1.15,40.26 -1.08,38.75 -1.02,37.25 -0.93,35.73 -0.85,34.21 -0.78,33.12 -0.71,32.02 -0.62,30.49 -0.54,28.95 -0.54,27.57 -0.54,26.19 -0.52,24.96 -0.49,23.74 -0.46,21.34 -0.44,18.93 -0.33,17.18 -0.22,15.42 -0.27,13.69 -0.33,11.95 -0.34,10.54 -0.36,9.14 -0.69,6.24 -1.02,3.35 -1.57,2.20 -2.11,1.05 -2.21,0.79 -2.31,0.52 -2.33,0.23 -2.36,-0.04 -2.32,-0.32 -2.28,-0.61 -2.18,-0.87 -2.07,-1.14 -1.90,-1.37 -1.74,-1.60 -1.52,-1.79 -1.30,-1.97 -1.05,-2.10 -0.79,-2.23 -0.51,-2.29 -0.23,-2.35 0.04,-2.35 0.33,-2.34 0.60,-2.27 0.88,-2.19 1.13,-2.06 1.38,-1.92 1.59,-1.72 1.80,-1.53 1.96,-1.29 2.11,-1.05 2.11,-1.05 L 2.11,-1.05 Z"></path></g><g transform="translate(82.11422164856458 170.5) rotate(0 8 22)" stroke="none"><path fill="#000000" d="M 2.23,-1.11 Q 2.23,-1.11 3.01,0.65 3.78,2.42 4.25,3.92 4.71,5.42 5.47,7.26 6.22,9.11 6.53,10.60 6.85,12.08 7.58,13.98 8.31,15.87 8.88,17.60 9.45,19.33 10.01,20.85 10.57,22.38 11.15,23.93 11.73,25.48 12.26,26.44 12.78,27.41 12.98,28.77 13.18,30.13 14.09,31.73 15.00,33.32 15.51,34.32 16.02,35.31 16.55,36.30 17.07,37.29 18.14,39.95 19.22,42.60 19.32,43.16 19.42,43.71 19.33,44.27 19.25,44.84 18.99,45.34 18.73,45.84 18.32,46.24 17.92,46.63 17.40,46.88 16.89,47.12 16.33,47.19 15.77,47.26 15.21,47.15 14.66,47.03 14.17,46.74 13.68,46.46 13.30,46.03 12.93,45.60 12.71,45.08 12.50,44.55 12.46,43.99 12.42,43.42 12.57,42.87 12.71,42.33 13.02,41.85 13.34,41.38 13.78,41.03 14.23,40.68 14.77,40.49 15.30,40.31 15.87,40.30 16.44,40.29 16.98,40.47 17.52,40.64 17.97,40.98 18.43,41.32 18.75,41.78 19.07,42.25 19.23,42.79 19.39,43.34 19.37,43.90 19.34,44.47 19.14,45.00 18.94,45.53 18.58,45.96 18.21,46.40 17.73,46.70 17.25,47.00 16.70,47.13 16.14,47.26 15.58,47.20 15.02,47.15 14.50,46.92 13.98,46.68 13.56,46.30 13.15,45.91 12.88,45.42 12.60,44.92 12.60,44.92 12.60,44.92 12.01,42.59 11.41,40.27 10.90,39.22 10.39,38.18 9.59,36.73 8.80,35.29 8.04,33.83 7.27,32.37 7.41,31.16 7.54,29.95 6.75,28.33 5.95,26.70 5.41,24.71 4.87,22.71 4.40,21.01 3.92,19.30 3.54,17.34 3.16,15.38 2.61,14.36 2.06,13.34 1.60,11.10 1.15,8.87 0.67,7.79 0.19,6.71 -0.06,5.59 -0.33,4.47 -1.28,2.79 -2.23,1.11 -2.33,0.83 -2.43,0.55 -2.46,0.25 -2.50,-0.04 -2.45,-0.34 -2.41,-0.64 -2.30,-0.92 -2.19,-1.20 -2.01,-1.45 -1.83,-1.69 -1.60,-1.89 -1.37,-2.08 -1.11,-2.22 -0.84,-2.35 -0.54,-2.42 -0.25,-2.48 0.04,-2.48 0.35,-2.47 0.64,-2.39 0.93,-2.32 1.19,-2.17 1.46,-2.02 1.68,-1.82 1.90,-1.62 2.07,-1.36 2.23,-1.11 2.23,-1.11 L 2.23,-1.11 Z"></path></g><g transform="translate(53.11422164856458 133.5) rotate(0 32 6.5)" stroke="none"><path fill="#000000" d="M 0.77,-1.80 Q 0.77,-1.80 2.75,-0.86 4.72,0.07 7.16,0.75 9.59,1.42 11.57,2.01 13.55,2.61 15.85,3.48 18.16,4.35 20.56,5.31 22.97,6.26 24.92,7.28 26.86,8.29 27.92,8.56 28.97,8.83 31.09,9.55 33.21,10.28 34.38,10.44 35.55,10.59 36.71,10.31 37.87,10.02 39.29,9.39 40.72,8.75 43.04,7.50 45.35,6.24 46.59,5.37 47.83,4.49 49.21,3.92 50.58,3.36 53.08,2.58 55.58,1.81 57.00,0.72 58.42,-0.37 60.50,-1.81 62.59,-3.24 63.00,-3.36 63.41,-3.49 63.83,-3.47 64.26,-3.46 64.66,-3.31 65.06,-3.16 65.39,-2.89 65.72,-2.62 65.95,-2.26 66.18,-1.90 66.28,-1.49 66.38,-1.08 66.34,-0.65 66.30,-0.23 66.13,0.16 65.96,0.55 65.68,0.86 65.39,1.18 65.02,1.39 64.65,1.59 64.23,1.67 63.81,1.75 63.39,1.69 62.96,1.63 62.58,1.44 62.20,1.25 61.90,0.94 61.60,0.64 61.41,0.26 61.23,-0.11 61.17,-0.54 61.12,-0.96 61.20,-1.38 61.28,-1.80 61.49,-2.17 61.70,-2.54 62.02,-2.82 62.34,-3.10 62.73,-3.27 63.13,-3.44 63.55,-3.47 63.98,-3.50 64.39,-3.40 64.80,-3.29 65.16,-3.06 65.52,-2.83 65.79,-2.49 66.05,-2.16 66.20,-1.76 66.34,-1.36 66.35,-0.93 66.36,-0.51 66.23,-0.10 66.10,0.30 65.85,0.64 65.60,0.99 65.26,1.24 64.91,1.48 64.91,1.48 64.91,1.48 63.38,2.63 61.85,3.77 60.59,4.26 59.33,4.75 58.26,5.42 57.20,6.08 55.29,6.86 53.38,7.63 51.87,7.90 50.36,8.17 49.03,9.10 47.70,10.04 45.32,11.69 42.94,13.33 40.41,14.34 37.87,15.34 36.24,15.20 34.60,15.05 32.94,14.42 31.29,13.79 29.54,12.87 27.80,11.95 26.68,11.39 25.56,10.84 23.74,9.92 21.92,9.01 19.52,8.12 17.12,7.23 14.89,6.47 12.65,5.71 10.71,5.17 8.77,4.64 6.05,4.00 3.32,3.37 1.27,2.58 -0.77,1.80 -0.97,1.68 -1.18,1.56 -1.35,1.40 -1.52,1.23 -1.65,1.03 -1.77,0.83 -1.85,0.61 -1.92,0.38 -1.94,0.15 -1.96,-0.08 -1.92,-0.31 -1.88,-0.55 -1.79,-0.76 -1.69,-0.98 -1.55,-1.17 -1.41,-1.36 -1.23,-1.51 -1.04,-1.66 -0.83,-1.76 -0.61,-1.86 -0.38,-1.91 -0.15,-1.95 0.08,-1.94 0.31,-1.93 0.54,-1.87 0.77,-1.80 0.77,-1.80 L 0.77,-1.80 Z"></path></g><g transform="translate(856.1142216485646 148.5) rotate(0 122.5 21)"><text x="0" y="15" font-family="Virgil, Segoe UI Emoji" font-size="16px" fill="#5c940d" text-anchor="start" style="white-space: pre;" direction="ltr">Resources available</text><text x="0" y="36" font-family="Virgil, Segoe UI Emoji" font-size="16px" fill="#5c940d" text-anchor="start" style="white-space: pre;" direction="ltr">Default Mini-Flux Configuration</text></g><g stroke-linecap="round" transform="translate(401.6142216485646 108.5) rotate(0 112.49999999999994 75)"><path d="M37.5 0 M37.5 0 C95.62 -0.6, 149.62 1.13, 187.5 0 M37.5 0 C74.38 0.57, 112.12 0.39, 187.5 0 M187.5 0 C211.16 -0.16, 226.3 10.69, 225 37.5 M187.5 0 C213.94 -0.65, 225.5 12.13, 225 37.5 M225 37.5 C226.26 52.56, 223.76 68.58, 225 112.5 M225 37.5 C225.65 54.77, 225.93 71.64, 225 112.5 M225 112.5 C223.38 135.56, 213.84 150.2, 187.5 150 M225 112.5 C225.38 137.73, 212.24 152.2, 187.5 150 M187.5 150 C133.77 151.02, 78.63 151.08, 37.5 150 M187.5 150 C157.24 148.56, 125.22 149.4, 37.5 150 M37.5 150 C12.97 148.84, 1.36 138.9, 0 112.5 M37.5 150 C13.82 151.59, 1.47 137.35, 0 112.5 M0 112.5 C1.17 92.4, -0.77 71.31, 0 37.5 M0 112.5 C-0.82 84.81, -0.76 57.93, 0 37.5 M0 37.5 C0.38 13, 12.67 0.99, 37.5 0 M0 37.5 C1.61 11.95, 13.69 -0.07, 37.5 0" stroke="#5f3dc4" stroke-width="1" fill="none"></path></g><g transform="translate(459.1142216485646 270) rotate(0 60.5 13)"><text x="0" y="18" font-family="Virgil, Segoe UI Emoji" font-size="20px" fill="#000000" text-anchor="start" style="white-space: pre;" direction="ltr">FluxManager</text></g><g stroke-linecap="round" transform="translate(760.1142216485646 126.5) rotate(0 40.5 52)"><path d="M20.25 0 M20.25 0 C35.35 -1.48, 47.78 1.58, 60.75 0 M20.25 0 C34.42 0.87, 49.2 0.09, 60.75 0 M60.75 0 C76.1 -0.43, 82.63 7.73, 81 20.25 M60.75 0 C72.16 0.17, 79.17 7.34, 81 20.25 M81 20.25 C81.41 41.18, 81.83 63.89, 81 83.75 M81 20.25 C81.01 42.72, 80.87 63.34, 81 83.75 M81 83.75 C82.72 95.4, 74.56 103.37, 60.75 104 M81 83.75 C79.74 99.05, 73.87 102.46, 60.75 104 M60.75 104 C47.76 104.2, 34.12 105.66, 20.25 104 M60.75 104 C48.88 104.99, 35.8 104.29, 20.25 104 M20.25 104 C8.26 104.93, -1.03 98.31, 0 83.75 M20.25 104 C5.33 105.76, -0.27 98.75, 0 83.75 M0 83.75 C-0.18 58.17, 1.16 37.39, 0 20.25 M0 83.75 C-1.16 63.78, 0 45.84, 0 20.25 M0 20.25 C-1.31 6.6, 6.19 1.36, 20.25 0 M0 20.25 C0.48 4.76, 5.3 1.18, 20.25 0" stroke="#d9480f" stroke-width="1" fill="none"></path></g><g transform="translate(777.1142216485646 168.5) rotate(0 21.5 13)"><text x="0" y="18" font-family="Virgil, Segoe UI Emoji" font-size="20px" fill="#0b7285" text-anchor="start" style="white-space: pre;" direction="ltr">CRD</text></g><g transform="translate(761.1142216485646 89.5) rotate(0 48 13)"><text x="0" y="18" font-family="Virgil, Segoe UI Emoji" font-size="20px" fill="#000000" text-anchor="start" style="white-space: pre;" direction="ltr">FluxSetup</text></g><g stroke-linecap="round" transform="translate(586.866034409305 273.30234826327876) rotate(141.927218126009 98.2481872392591 14.197651736721497)"><path d="M93.92 -1.52 C107.14 -1.84, 121.78 -1.3, 134.43 -0.17 C147.08 0.95, 160.03 3.47, 169.84 5.23 C179.64 6.99, 188.92 8.47, 193.28 10.36 C197.63 12.25, 198.59 14.7, 195.96 16.58 C193.33 18.46, 185.57 20, 177.5 21.64 C169.42 23.28, 160.02 25.08, 147.51 26.42 C135.01 27.76, 116.74 29.63, 102.47 29.69 C88.2 29.74, 74.93 27.69, 61.89 26.73 C48.85 25.78, 34.09 25.53, 24.21 23.96 C14.32 22.39, 6.45 19.54, 2.58 17.33 C-1.29 15.12, -1.74 12.56, 0.99 10.71 C3.71 8.85, 10.28 7.58, 18.91 6.18 C27.53 4.77, 35.2 3.18, 52.73 2.27 C70.26 1.35, 107.95 0.42, 124.08 0.67 C140.22 0.91, 150 3.25, 149.56 3.73" stroke="#d9480f" stroke-width="1.5" fill="none" stroke-dasharray="1.5 7"></path></g><g stroke-linecap="round" transform="translate(419.1142216485646 124) rotate(0 95.99999999999994 23.5)"><path d="M11.75 0 M11.75 0 C65.9 0.17, 120.05 1.94, 180.25 0 M11.75 0 C66.55 -1.82, 122.64 -1.27, 180.25 0 M180.25 0 C189.73 1.08, 193.96 2.32, 192 11.75 M180.25 0 C188.7 -1.2, 193.4 3.82, 192 11.75 M192 11.75 C193.5 16.85, 190.3 23.37, 192 35.25 M192 11.75 C191.78 18.21, 192 23.65, 192 35.25 M192 35.25 C191.18 41.16, 186.81 46.39, 180.25 47 M192 35.25 C190.32 43.76, 186.93 47.68, 180.25 47 M180.25 47 C134.48 48.57, 86.45 49.78, 11.75 47 M180.25 47 C128.27 46.23, 77.92 46.91, 11.75 47 M11.75 47 C3.05 45.62, 1.94 44.2, 0 35.25 M11.75 47 C5.29 45.55, 0.34 44.98, 0 35.25 M0 35.25 C-1.58 26.59, -0.38 18.97, 0 11.75 M0 35.25 C0.88 29.04, -0.19 21.36, 0 11.75 M0 11.75 C1.76 5.13, 5.15 0.95, 11.75 0 M0 11.75 C-1.13 1.78, 3.95 -0.37, 11.75 0" stroke="#087f5b" stroke-width="1" fill="none"></path></g><g transform="translate(455.6142216485646 138.5) rotate(0 61 10.5)"><text x="0" y="15" font-family="Virgil, Segoe UI Emoji" font-size="16px" fill="#087f5b" text-anchor="start" style="white-space: pre;" direction="ltr">Waiting FluxJob</text></g><g stroke-linecap="round" transform="translate(419.6142216485646 183.5) rotate(0 95.99999999999994 23.5)"><path d="M11.75 0 M11.75 0 C47.98 2.49, 82.93 3.35, 180.25 0 M11.75 0 C63.74 1.13, 115.38 0.47, 180.25 0 M180.25 0 C188.46 -0.64, 191.48 2.33, 192 11.75 M180.25 0 C186.68 1.62, 193.8 4.63, 192 11.75 M192 11.75 C191.39 21.33, 190.44 28.06, 192 35.25 M192 11.75 C192.99 17.78, 192.71 25.81, 192 35.25 M192 35.25 C192.11 42.3, 186.38 48.29, 180.25 47 M192 35.25 C193.35 44.23, 189.84 46.25, 180.25 47 M180.25 47 C146.03 46.7, 109.64 47.19, 11.75 47 M180.25 47 C133.12 46.09, 86.11 46.7, 11.75 47 M11.75 47 C5.43 46.68, 0.97 41.39, 0 35.25 M11.75 47 C2.51 46.82, -0.31 42.55, 0 35.25 M0 35.25 C1.67 29.97, -1.17 27, 0 11.75 M0 35.25 C1.01 30.74, 0.11 25.44, 0 11.75 M0 11.75 C1.55 1.94, 2.77 0.61, 11.75 0 M0 11.75 C0.96 3.3, 2.54 1.79, 11.75 0" stroke="#087f5b" stroke-width="1" fill="none"></path></g><g transform="translate(456.1142216485646 198) rotate(0 60.5 10.5)"><text x="0" y="15" font-family="Virgil, Segoe UI Emoji" font-size="16px" fill="#087f5b" text-anchor="start" style="white-space: pre;" direction="ltr">Running FluxJob</text></g><g stroke-linecap="round"><g transform="translate(10.61422164856458 372) rotate(0 193.49593957946638 -0.31530291654632947)"><path d="M0.55 1.06 C64.84 0.95, 321.21 0.32, 385.27 0.29 M-0.61 0.57 C64.1 -0.01, 322.96 -1.42, 387.61 -1.69" stroke="#e67700" stroke-width="2" fill="none"></path></g></g><g stroke-linecap="round" transform="translate(435.1142216485646 42) rotate(0 80.50000000000006 15.000000000000014)"><path d="M7.5 0 M7.5 0 C36.42 -0.21, 67.81 -2.71, 153.5 0 M7.5 0 C49.54 1.74, 89.77 1.26, 153.5 0 M153.5 0 C160.35 -1.75, 161.87 1.9, 161 7.5 M153.5 0 C160.13 -1.21, 160.87 0.6, 161 7.5 M161 7.5 C160.75 11.66, 161.95 19.08, 161 22.5 M161 7.5 C160.26 11.52, 161.27 15.26, 161 22.5 M161 22.5 C160.82 29.07, 158.36 30.13, 153.5 30 M161 22.5 C160.81 27.07, 156.61 31.18, 153.5 30 M153.5 30 C115.33 29.23, 74.9 30.71, 7.5 30 M153.5 30 C114.79 31.57, 76.82 31.96, 7.5 30 M7.5 30 C1.16 29.43, -0.5 25.75, 0 22.5 M7.5 30 C1.07 29.7, -1.42 26.19, 0 22.5 M0 22.5 C-1.22 19.4, 0.22 14.57, 0 7.5 M0 22.5 C-0.65 18.33, 0.59 13.44, 0 7.5 M0 7.5 C-0.26 0.83, 3.02 0.68, 7.5 0 M0 7.5 C-1.42 0.3, 0.28 -2.26, 7.5 0" stroke="#5f3dc4" stroke-width="1" fill="none"></path></g><g transform="translate(471.1142216485646 10) rotate(0 46 13)"><text x="0" y="18" font-family="Virgil, Segoe UI Emoji" font-size="20px" fill="#000000" text-anchor="start" style="white-space: pre;" direction="ltr">Scheduler</text></g><g stroke-linecap="round" transform="translate(427.53660048757024 77.39845823448513) rotate(180.0000000000002 88.0776211609944 13.101541765514867)"><path d="M78.16 0.74 C90.91 0.26, 107.59 0.3, 120.29 0.78 C132.99 1.25, 145.77 2.06, 154.37 3.6 C162.98 5.14, 168.63 8.05, 171.92 10.03 C175.21 12, 177.05 13.68, 174.11 15.45 C171.17 17.21, 163.39 18.78, 154.29 20.64 C145.19 22.5, 132.06 25.83, 119.52 26.61 C106.97 27.39, 92.29 26.02, 79 25.34 C65.72 24.65, 51.29 23.39, 39.82 22.51 C28.35 21.63, 17 21.39, 10.17 20.04 C3.35 18.7, -1.32 16.61, -1.13 14.46 C-0.94 12.31, 4.7 9.14, 11.31 7.16 C17.91 5.18, 18.9 3.82, 38.48 2.57 C58.06 1.32, 108.31 -0.85, 128.79 -0.36 C149.27 0.12, 162.14 4.8, 161.36 5.48" stroke="#5f3dc4" stroke-width="1.5" fill="none" stroke-dasharray="1.5 7"></path></g><g transform="translate(784.1142216485646 361.5) rotate(0 149.5 10.5)"><text x="0" y="15" font-family="Virgil, Segoe UI Emoji" font-size="16px" fill="#0b7285" text-anchor="start" style="white-space: pre;" direction="ltr">- Watching: FluxJob Create -&gt; Waiting</text></g><g stroke-linecap="round" transform="translate(613.1142216485646 349) rotate(0 79.5 22.5)"><path d="M11.25 0 M11.25 0 C60.82 0.34, 112.29 0.23, 147.75 0 M11.25 0 C49.62 0.8, 89.32 0.69, 147.75 0 M147.75 0 C155.65 -1.75, 159.58 3.63, 159 11.25 M147.75 0 C154.65 0.84, 157.37 4.77, 159 11.25 M159 11.25 C157.29 17.84, 160.9 26.72, 159 33.75 M159 11.25 C160.16 17.13, 158.4 20.72, 159 33.75 M159 33.75 C159.34 40.08, 153.33 46.66, 147.75 45 M159 33.75 C159.74 41.01, 156.69 44.25, 147.75 45 M147.75 45 C114.09 42.89, 81.48 44.53, 11.25 45 M147.75 45 C116.8 44.52, 86.41 45.24, 11.25 45 M11.25 45 C2.01 46.27, 0.58 39.93, 0 33.75 M11.25 45 C1.91 42.88, -2.09 39.35, 0 33.75 M0 33.75 C0.93 26.31, -2.08 17.71, 0 11.25 M0 33.75 C-0.59 25.09, -0.32 17.19, 0 11.25 M0 11.25 C-1.38 4, 5.14 0.52, 11.25 0 M0 11.25 C-0.67 3.52, 5.93 -0.31, 11.25 0" stroke="#d9480f" stroke-width="1" fill="none"></path></g><g transform="translate(655.6142216485646 362.5) rotate(0 38 10.5)"><text x="0" y="15" font-family="Virgil, Segoe UI Emoji" font-size="16px" fill="#0b7285" text-anchor="start" style="white-space: pre;" direction="ltr">Controller</text></g><g transform="translate(85.11422164856458 473) rotate(0 154 169)"><text x="0" y="18" font-family="Virgil, Segoe UI Emoji" font-size="20px" fill="#0b7285" text-anchor="start" style="white-space: pre;" direction="ltr">Waiting:</text><text x="0" y="44" font-family="Virgil, Segoe UI Emoji" font-size="20px" fill="#0b7285" text-anchor="start" style="white-space: pre;" direction="ltr"> - Allowed to run?</text><text x="0" y="70" font-family="Virgil, Segoe UI Emoji" font-size="20px" fill="#0b7285" text-anchor="start" style="white-space: pre;" direction="ltr"> - In waiting queue (continue) </text><text x="0" y="96" font-family="Virgil, Segoe UI Emoji" font-size="20px" fill="#0b7285" text-anchor="start" style="white-space: pre;" direction="ltr"></text><text x="0" y="122" font-family="Virgil, Segoe UI Emoji" font-size="20px" fill="#0b7285" text-anchor="start" style="white-space: pre;" direction="ltr">Ready:</text><text x="0" y="148" font-family="Virgil, Segoe UI Emoji" font-size="20px" fill="#0b7285" text-anchor="start" style="white-space: pre;" direction="ltr"> - Launch job to Mini-Cluster</text><text x="0" y="174" font-family="Virgil, Segoe UI Emoji" font-size="20px" fill="#0b7285" text-anchor="start" style="white-space: pre;" direction="ltr"></text><text x="0" y="200" font-family="Virgil, Segoe UI Emoji" font-size="20px" fill="#0b7285" text-anchor="start" style="white-space: pre;" direction="ltr">Running:</text><text x="0" y="226" font-family="Virgil, Segoe UI Emoji" font-size="20px" fill="#0b7285" text-anchor="start" style="white-space: pre;" direction="ltr">  - Not done yet (continue)</text><text x="0" y="252" font-family="Virgil, Segoe UI Emoji" font-size="20px" fill="#0b7285" text-anchor="start" style="white-space: pre;" direction="ltr">  - Done - flag finished</text><text x="0" y="278" font-family="Virgil, Segoe UI Emoji" font-size="20px" fill="#0b7285" text-anchor="start" style="white-space: pre;" direction="ltr"></text><text x="0" y="304" font-family="Virgil, Segoe UI Emoji" font-size="20px" fill="#0b7285" text-anchor="start" style="white-space: pre;" direction="ltr">Finished:</text><text x="0" y="330" font-family="Virgil, Segoe UI Emoji" font-size="20px" fill="#0b7285" text-anchor="start" style="white-space: pre;" direction="ltr">  - Clean up to free resources</text></g><g stroke-linecap="round"><g transform="translate(318.44755498189795 506.64583333333326) rotate(0 96.61121636529765 0.8427454745112186)"><path d="M-0.55 0.51 C31.55 0.86, 161.44 2.03, 193.78 1.95 M1.36 -0.27 C33.17 -0.22, 160.79 0.24, 192.62 0.44" stroke="#5c940d" stroke-width="1" fill="none"></path></g><g transform="translate(318.44755498189795 506.64583333333326) rotate(0 96.61121636529765 0.8427454745112186)"><path d="M192.77 -1.22 L177.02 5.33 L179.2 -7.94 L194.34 -1.44" stroke="none" stroke-width="0" fill="#5c940d" fill-rule="evenodd"></path><path d="M193.26 -0.05 C188.7 2, 180.92 5.2, 178.68 7.45 M192.85 0.31 C189.92 1.39, 186.48 2.81, 178.68 6.2 M178.82 6.42 C178.13 3.57, 179.96 -1.98, 178.66 -6.25 M179.51 6.88 C178.43 3.49, 178.37 1.69, 179.2 -6.25 M177.81 -7.16 C183.01 -3.86, 186.7 -3.72, 192.97 -0.53 M178.69 -5.41 C184.51 -3.93, 189.45 -0.91, 193.22 0.47 M192.62 0.44 C192.62 0.44, 192.62 0.44, 192.62 0.44 M192.62 0.44 C192.62 0.44, 192.62 0.44, 192.62 0.44" stroke="#5c940d" stroke-width="1" fill="none"></path></g></g><g transform="translate(328.6142216485646 476.5) rotate(0 84 10.5)"><text x="0" y="15" font-family="Virgil, Segoe UI Emoji" font-size="16px" fill="#5c940d" text-anchor="start" style="white-space: pre;" direction="ltr">New Mini-Flux Cluster</text></g><g stroke-linecap="round"><g transform="translate(12.61422164856458 867) rotate(0 -0.12110126358024331 -248.91094353497033)"><path d="M-0.65 0.11 C-0.51 -82.76, -0.24 -415.04, -0.33 -497.93 M1.21 -0.88 C1.26 -83.47, -1.43 -413.31, -1.45 -496.36" stroke="#e67700" stroke-width="2" fill="none"></path></g></g></svg>