<svg version="1.1" xmlns="http://www.w3.org/2000/svg" viewBox="0 0 1219 930" width="1219" height="930">
  <!-- svg-source:excalidraw -->
  
  <defs>
    <style>
      @font-face {
        font-family: "Virgil";
        src: url("https://excalidraw.com/Virgil.woff2");
      }
      @font-face {
        font-family: "Cascadia";
        src: url("https://excalidraw.com/Cascadia.woff2");
      }
    </style>
  </defs>
  <rect x="0" y="0" width="1219" height="930" fill="#ffffff"></rect><g stroke-linecap="round" transform="translate(391 184) rotate(0 114 165.5)"><path d="M57 0 M57 0 C93.55 1.7, 126.16 1.97, 171 0 M57 0 C86.23 0.88, 116.73 -0.76, 171 0 M171 0 C209.78 1.25, 229.69 19.67, 228 57 M171 0 C209.67 1.84, 229.13 20.71, 228 57 M228 57 C225.36 102.31, 226 148.06, 228 274 M228 57 C228.15 123.43, 229.06 189.58, 228 274 M228 274 C228.92 310.21, 207.52 330.39, 171 331 M228 274 C230 310.5, 206.95 333.02, 171 331 M171 331 C138.15 332.37, 104.89 331.44, 57 331 M171 331 C147.86 330.26, 124.16 329.4, 57 331 M57 331 C17.79 332.24, 1.12 313.99, 0 274 M57 331 C17.35 332.18, -1.14 309.78, 0 274 M0 274 C-1.41 221.36, -0.34 168.02, 0 57 M0 274 C2.52 217.6, 1.36 160.29, 0 57 M0 57 C-1.76 18.7, 19.78 0.16, 57 0 M0 57 C-0.94 18.18, 20.94 0.85, 57 0" stroke="#364fc7" stroke-width="1" fill="none"></path></g><g transform="translate(444 487) rotate(0 54 12.5)"><text x="0" y="18" font-family="Virgil, Segoe UI Emoji" font-size="20px" fill="#364fc7" text-anchor="start" style="white-space: pre;" direction="ltr">Kubernetes</text></g><g stroke-linecap="round" transform="translate(618 411) rotate(0 53 49.5)"><path d="M28.66 5.48 C35.88 1.19, 46.7 0.19, 55.54 0.49 C64.37 0.8, 74.41 2.9, 81.66 7.31 C88.91 11.73, 94.85 19.55, 99.05 26.98 C103.25 34.41, 107.15 43.8, 106.87 51.91 C106.58 60.03, 102.36 68.79, 97.33 75.67 C92.3 82.56, 84.38 89.31, 76.69 93.21 C69 97.1, 59.93 99.41, 51.19 99.04 C42.44 98.66, 31.59 95.31, 24.21 90.94 C16.82 86.57, 10.79 80.22, 6.88 72.82 C2.98 65.41, 0.41 54.82, 0.8 46.52 C1.19 38.22, 3.87 30.21, 9.21 23.01 C14.54 15.8, 28.39 6.66, 32.79 3.31 C37.2 -0.04, 35.51 2.16, 35.64 2.89 M49.52 0.62 C57.97 -0.35, 68.59 3.04, 76.7 6.68 C84.81 10.32, 93.53 15.76, 98.18 22.45 C102.82 29.15, 104.15 38.62, 104.59 46.87 C105.03 55.11, 104.88 64.52, 100.83 71.93 C96.77 79.34, 87.9 86.64, 80.26 91.34 C72.62 96.04, 63.67 99.7, 55 100.11 C46.33 100.52, 36.07 97.83, 28.23 93.78 C20.4 89.73, 12.72 82.77, 7.99 75.83 C3.27 68.88, 0.17 60.16, -0.12 52.09 C-0.4 44.03, 2.37 34.82, 6.3 27.42 C10.23 20.03, 15.92 12.46, 23.46 7.74 C30.99 3.02, 46.79 0.44, 51.49 -0.9 C56.19 -2.25, 51.78 -1.25, 51.67 -0.32" stroke="#e67700" stroke-width="1" fill="none"></path></g><g stroke-linecap="round" transform="translate(330 120) rotate(0 53 49.5)"><path d="M55.63 0.17 C64.14 -0.26, 73.85 2.64, 81.29 7.11 C88.73 11.58, 96.23 19.63, 100.26 27.01 C104.3 34.39, 106.02 43.17, 105.51 51.38 C105 59.58, 101.85 69.39, 97.22 76.25 C92.58 83.12, 85.36 88.87, 77.68 92.56 C70 96.25, 59.96 98.68, 51.14 98.42 C42.32 98.15, 32.42 95.14, 24.77 90.95 C17.11 86.76, 9.48 80.69, 5.19 73.27 C0.91 65.85, -1.43 54.87, -0.95 46.45 C-0.47 38.03, 3.07 29.43, 8.08 22.77 C13.1 16.1, 20.95 10.14, 29.16 6.45 C37.38 2.75, 52.35 1.41, 57.4 0.6 C62.44 -0.21, 59.62 0.89, 59.44 1.57 M29.57 5.35 C36.45 1.41, 45.59 0.55, 54.31 0.86 C63.02 1.17, 74.18 2.85, 81.85 7.19 C89.53 11.54, 96.54 19.36, 100.37 26.92 C104.19 34.47, 105.02 44.6, 104.8 52.53 C104.59 60.47, 103.82 67.82, 99.09 74.51 C94.35 81.21, 84.68 88.83, 76.39 92.72 C68.11 96.61, 57.84 98.08, 49.38 97.84 C40.92 97.6, 32.77 95.72, 25.62 91.29 C18.47 86.86, 10.57 78.5, 6.5 71.25 C2.42 64, 0.91 55.64, 1.18 47.8 C1.45 39.96, 3.73 31.38, 8.12 24.21 C12.5 17.05, 23.78 7.79, 27.47 4.81 C31.16 1.83, 29.92 5.59, 30.26 6.35" stroke="#e67700" stroke-width="1" fill="none"></path></g><g transform="translate(623 448) rotate(0 48 12.5)"><text x="48" y="18" font-family="Virgil, Segoe UI Emoji" font-size="20px" fill="#0b7285" text-anchor="middle" style="white-space: pre;" direction="ltr">Reconcile</text></g><g stroke-linecap="round" transform="translate(724 376) rotate(0 40.5 52)"><path d="M20.25 0 M20.25 0 C32.11 -0.47, 46.06 -1.23, 60.75 0 M20.25 0 C36.7 -0.05, 52.5 0.35, 60.75 0 M60.75 0 C76.1 -1.75, 82.41 8.4, 81 20.25 M60.75 0 C73.32 -1.48, 82.06 7.84, 81 20.25 M81 20.25 C81.46 38.96, 82.21 57.35, 81 83.75 M81 20.25 C81.67 40.19, 81.38 61.28, 81 83.75 M81 83.75 C80.13 98.72, 74.01 105.42, 60.75 104 M81 83.75 C80.41 98.77, 73.82 103.77, 60.75 104 M60.75 104 C50.02 105.65, 44.82 102.77, 20.25 104 M60.75 104 C45.32 104.39, 30.48 103.06, 20.25 104 M20.25 104 C5.35 105.91, -1.3 97.91, 0 83.75 M20.25 104 C6.13 104.6, -0.4 96.5, 0 83.75 M0 83.75 C-1.83 61.94, -1.5 41.45, 0 20.25 M0 83.75 C-0.73 63.12, 1.2 41.74, 0 20.25 M0 20.25 C1.99 5.58, 5.43 1.09, 20.25 0 M0 20.25 C-1.25 8.88, 7.66 -1.9, 20.25 0" stroke="#d9480f" stroke-width="1" fill="none"></path></g><g transform="translate(743 389) rotate(0 21.5 13)"><text x="0" y="18" font-family="Virgil, Segoe UI Emoji" font-size="20px" fill="#d9480f" text-anchor="start" style="white-space: pre;" direction="ltr">CRD</text></g><g stroke-linecap="round" transform="translate(260 44) rotate(0 40.5 52)"><path d="M20.25 0 M20.25 0 C36.42 -1.01, 51.58 1.11, 60.75 0 M20.25 0 C33.19 0.66, 45.12 0.02, 60.75 0 M60.75 0 C73.21 0.42, 81.3 5.11, 81 20.25 M60.75 0 C75.13 -1.24, 81.44 6, 81 20.25 M81 20.25 C79.65 33.7, 81.17 49.27, 81 83.75 M81 20.25 C81.19 44.76, 80.47 68.4, 81 83.75 M81 83.75 C79.07 97.66, 72.7 105.55, 60.75 104 M81 83.75 C80.54 95.93, 75.51 104.76, 60.75 104 M60.75 104 C48.38 105.45, 40.83 102.14, 20.25 104 M60.75 104 C51.12 104.26, 42.95 103.9, 20.25 104 M20.25 104 C5.12 105.51, 0.44 97.11, 0 83.75 M20.25 104 C8.59 102.58, -1.3 99.35, 0 83.75 M0 83.75 C0.45 65.43, -0.9 45.7, 0 20.25 M0 83.75 C-0.24 67.79, 0.11 52.39, 0 20.25 M0 20.25 C0.32 6.98, 8.21 0.22, 20.25 0 M0 20.25 C1.51 8.39, 7.04 -1.37, 20.25 0" stroke="#d9480f" stroke-width="1" fill="none"></path></g><g transform="translate(279 57) rotate(0 13.5 13)"><text x="0" y="18" font-family="Virgil, Segoe UI Emoji" font-size="20px" fill="#d9480f" text-anchor="start" style="white-space: pre;" direction="ltr">CR</text></g><g transform="translate(262 10) rotate(0 37 12.5)"><text x="0" y="18" font-family="Virgil, Segoe UI Emoji" font-size="20px" fill="#000000" text-anchor="start" style="white-space: pre;" direction="ltr">FluxJob</text></g><g transform="translate(716 348) rotate(0 48 13)"><text x="0" y="18" font-family="Virgil, Segoe UI Emoji" font-size="20px" fill="#000000" text-anchor="start" style="white-space: pre;" direction="ltr">FluxSetup</text></g><g transform="translate(308 56) rotate(0 8.5 12.5)"><text x="0" y="18" font-family="Virgil, Segoe UI Emoji" font-size="20px" fill="#d9480f" text-anchor="start" style="white-space: pre;" direction="ltr">D</text></g><g stroke-linecap="round" transform="translate(204.5 121) rotate(0 11.5 24)"><path d="M5.75 0 M5.75 0 C9.65 -0.86, 14.45 -0.59, 17.25 0 M5.75 0 C9.1 0.24, 11.58 -0.1, 17.25 0 M17.25 0 C22.88 1.53, 23.36 3.37, 23 5.75 M17.25 0 C21.57 1.42, 22.1 2.77, 23 5.75 M23 5.75 C22.87 14.73, 22.63 27.52, 23 42.25 M23 5.75 C22.85 18.92, 22.6 30.37, 23 42.25 M23 42.25 C22.18 46.54, 20.29 48.83, 17.25 48 M23 42.25 C22.16 46.25, 21.03 47.1, 17.25 48 M17.25 48 C14.87 47.93, 10.03 48.63, 5.75 48 M17.25 48 C12.47 47.89, 7.97 47.99, 5.75 48 M5.75 48 C0.34 46.98, -1.42 44.18, 0 42.25 M5.75 48 C0.67 46.91, -0.56 47.81, 0 42.25 M0 42.25 C-0.63 34.98, -1.49 24.31, 0 5.75 M0 42.25 C0.7 31.17, 0.11 19.22, 0 5.75 M0 5.75 C-1.42 3.54, 0.14 -1.12, 5.75 0 M0 5.75 C1.38 3.44, 0.99 1.5, 5.75 0" stroke="#d9480f" stroke-width="1" fill="none"></path></g><g stroke-linecap="round" transform="translate(190.5 134) rotate(0 11.5 24)"><path d="M5.75 0 M5.75 0 C9.96 -0.35, 11.48 0.71, 17.25 0 M5.75 0 C9.79 0.17, 14.93 0, 17.25 0 M17.25 0 C20.72 0.24, 22.24 2.44, 23 5.75 M17.25 0 C22.82 1.5, 22.88 4.04, 23 5.75 M23 5.75 C22.91 15.96, 22.45 26.24, 23 42.25 M23 5.75 C24.02 19.76, 22.7 32.58, 23 42.25 M23 42.25 C24.52 44.26, 21.72 49, 17.25 48 M23 42.25 C22.08 47.45, 22.52 45.85, 17.25 48 M17.25 48 C12.31 48.86, 10.41 48, 5.75 48 M17.25 48 C13.56 47.54, 10.13 47.84, 5.75 48 M5.75 48 C0.21 46.8, -0.71 48.01, 0 42.25 M5.75 48 C-0.16 49.36, -0.55 46.29, 0 42.25 M0 42.25 C0.18 32.95, -0.26 21.9, 0 5.75 M0 42.25 C0.83 34.08, -0.19 24.87, 0 5.75 M0 5.75 C-1.67 3.11, 3.2 1.87, 5.75 0 M0 5.75 C-1.2 2.68, -0.2 1.8, 5.75 0" stroke="#d9480f" stroke-width="1" fill="none"></path></g><g stroke-linecap="round" transform="translate(176.5 150) rotate(0 11.5 24)"><path d="M5.75 0 M5.75 0 C9.29 0.91, 12.98 -0.02, 17.25 0 M5.75 0 C10.52 -0.17, 14.51 -0.3, 17.25 0 M17.25 0 C19.32 1.29, 24.71 1.54, 23 5.75 M17.25 0 C22.71 1.62, 21.59 2.41, 23 5.75 M23 5.75 C23.67 18.68, 23.85 34.45, 23 42.25 M23 5.75 C22.16 12.34, 23.97 21.56, 23 42.25 M23 42.25 C23.2 46.61, 20.7 47.05, 17.25 48 M23 42.25 C23.24 44.45, 22.61 47.57, 17.25 48 M17.25 48 C15.89 46.92, 12.99 47.68, 5.75 48 M17.25 48 C14.16 47.96, 10.21 47.83, 5.75 48 M5.75 48 C0.63 46.55, -0.34 44.86, 0 42.25 M5.75 48 C3.67 48.33, -0.58 44.33, 0 42.25 M0 42.25 C1.65 33.3, 0.44 24.6, 0 5.75 M0 42.25 C-0.39 28.26, -0.37 13.68, 0 5.75 M0 5.75 C-0.6 1.45, 3.47 0.04, 5.75 0 M0 5.75 C-0.2 -0.11, 0.85 0.6, 5.75 0" stroke="#d9480f" stroke-width="1" fill="none"></path></g><g transform="translate(182 90) rotate(0 13.5 12.5)"><text x="0" y="18" font-family="Virgil, Segoe UI Emoji" font-size="20px" fill="#000000" text-anchor="start" style="white-space: pre;" direction="ltr">CR</text></g><g stroke-linecap="round" transform="translate(185 164) rotate(0 81.5 8.5)"><path d="M28.78 1.23 C36.67 0.21, 49.06 -0.09, 60.87 -0.17 C72.68 -0.26, 87.32 0.29, 99.67 0.72 C112.01 1.15, 125.56 1.29, 134.93 2.4 C144.3 3.5, 151.34 5.9, 155.87 7.36 C160.39 8.81, 163.08 10.47, 162.09 11.13 C161.09 11.78, 156.63 10.38, 149.89 11.28 C143.15 12.19, 132.93 15.78, 121.67 16.55 C110.41 17.32, 95.46 16.06, 82.32 15.89 C69.19 15.71, 53.99 16.18, 42.87 15.48 C31.75 14.78, 22.54 12.95, 15.59 11.68 C8.63 10.41, 3.04 8.62, 1.13 7.86 C-0.78 7.09, -3.11 8.48, 4.13 7.09 C11.36 5.7, 34.08 0.41, 44.52 -0.47 C54.96 -1.36, 66.25 1.44, 66.76 1.76" stroke="#d9480f" stroke-width="1.5" fill="none" stroke-dasharray="1.5 7"></path></g><g transform="translate(335 157) rotate(0 48 12.5)"><text x="48" y="18" font-family="Virgil, Segoe UI Emoji" font-size="20px" fill="#d9480f" text-anchor="middle" style="white-space: pre;" direction="ltr">Reconcile</text></g><g stroke-linecap="round" transform="translate(793.5 456.5) rotate(0 11.5 24)"><path d="M5.75 0 M5.75 0 C8.13 0.45, 12.15 -0.52, 17.25 0 M5.75 0 C8.52 0.07, 10.28 -0.13, 17.25 0 M17.25 0 C21.63 -1.96, 21.08 2.33, 23 5.75 M17.25 0 C19.52 -0.6, 25.07 4.13, 23 5.75 M23 5.75 C22.26 15.31, 24.98 29.58, 23 42.25 M23 5.75 C22.42 14.24, 23.42 20.76, 23 42.25 M23 42.25 C22.57 44.37, 21.95 47.8, 17.25 48 M23 42.25 C23.01 47.64, 18.93 46.57, 17.25 48 M17.25 48 C15.1 48.94, 10.65 48.65, 5.75 48 M17.25 48 C13.93 47.84, 11.21 48.54, 5.75 48 M5.75 48 C0.86 48.7, 1.7 47.38, 0 42.25 M5.75 48 C1.71 45.87, 2.15 46.43, 0 42.25 M0 42.25 C-0.33 31.49, 1.46 17.11, 0 5.75 M0 42.25 C-0.53 31.76, -0.52 20.73, 0 5.75 M0 5.75 C-1.19 3.02, 3.39 1.17, 5.75 0 M0 5.75 C0.36 1.87, 3.35 -0.14, 5.75 0" stroke="#d9480f" stroke-width="1" fill="none"></path></g><g transform="translate(759 426.5) rotate(0 13.5 12.5)"><text x="0" y="18" font-family="Virgil, Segoe UI Emoji" font-size="20px" fill="#000000" text-anchor="start" style="white-space: pre;" direction="ltr">CR</text></g><g stroke-linecap="round" transform="translate(417.5 226.5) rotate(0 19 7)"><path d="M3.5 0 M3.5 0 C15.26 0, 27.01 0, 34.5 0 M3.5 0 C9.94 0, 16.37 0, 34.5 0 M34.5 0 C36.83 0, 38 1.17, 38 3.5 M34.5 0 C36.83 0, 38 1.17, 38 3.5 M38 3.5 C38 5.62, 38 7.75, 38 10.5 M38 3.5 C38 6.09, 38 8.68, 38 10.5 M38 10.5 C38 12.83, 36.83 14, 34.5 14 M38 10.5 C38 12.83, 36.83 14, 34.5 14 M34.5 14 C22.59 14, 10.67 14, 3.5 14 M34.5 14 C23.57 14, 12.64 14, 3.5 14 M3.5 14 C1.17 14, 0 12.83, 0 10.5 M3.5 14 C1.17 14, 0 12.83, 0 10.5 M0 10.5 C0 8.8, 0 7.1, 0 3.5 M0 10.5 C0 8.02, 0 5.54, 0 3.5 M0 3.5 C0 1.17, 1.17 0, 3.5 0 M0 3.5 C0 1.17, 1.17 0, 3.5 0" stroke="#0b7285" stroke-width="1" fill="none"></path></g><g stroke-linecap="round" transform="translate(417.5 209.5) rotate(0 19 7)"><path d="M3.5 0 M3.5 0 C15.27 0, 27.03 0, 34.5 0 M3.5 0 C15.3 0, 27.1 0, 34.5 0 M34.5 0 C36.83 0, 38 1.17, 38 3.5 M34.5 0 C36.83 0, 38 1.17, 38 3.5 M38 3.5 C38 5.82, 38 8.15, 38 10.5 M38 3.5 C38 5.66, 38 7.82, 38 10.5 M38 10.5 C38 12.83, 36.83 14, 34.5 14 M38 10.5 C38 12.83, 36.83 14, 34.5 14 M34.5 14 C24.98 14, 15.46 14, 3.5 14 M34.5 14 C26.55 14, 18.6 14, 3.5 14 M3.5 14 C1.17 14, 0 12.83, 0 10.5 M3.5 14 C1.17 14, 0 12.83, 0 10.5 M0 10.5 C0 8.32, 0 6.15, 0 3.5 M0 10.5 C0 8.02, 0 5.54, 0 3.5 M0 3.5 C0 1.17, 1.17 0, 3.5 0 M0 3.5 C0 1.17, 1.17 0, 3.5 0" stroke="#0b7285" stroke-width="1" fill="none"></path></g><g stroke-linecap="round" transform="translate(457.5 208.5) rotate(0 19 7)"><path d="M3.5 0 M3.5 0 C9.99 0, 16.47 0, 34.5 0 M3.5 0 C14.32 0, 25.13 0, 34.5 0 M34.5 0 C36.83 0, 38 1.17, 38 3.5 M34.5 0 C36.83 0, 38 1.17, 38 3.5 M38 3.5 C38 5.49, 38 7.47, 38 10.5 M38 3.5 C38 5.45, 38 7.39, 38 10.5 M38 10.5 C38 12.83, 36.83 14, 34.5 14 M38 10.5 C38 12.83, 36.83 14, 34.5 14 M34.5 14 C24.78 14, 15.06 14, 3.5 14 M34.5 14 C25.19 14, 15.88 14, 3.5 14 M3.5 14 C1.17 14, 0 12.83, 0 10.5 M3.5 14 C1.17 14, 0 12.83, 0 10.5 M0 10.5 C0 8.05, 0 5.61, 0 3.5 M0 10.5 C0 8.04, 0 5.59, 0 3.5 M0 3.5 C0 1.17, 1.17 0, 3.5 0 M0 3.5 C0 1.17, 1.17 0, 3.5 0" stroke="#0b7285" stroke-width="1" fill="none"></path></g><g stroke-linecap="round" transform="translate(458.5 225.5) rotate(0 19 7)"><path d="M3.5 0 M3.5 0 C11.38 0, 19.26 0, 34.5 0 M3.5 0 C14.96 0, 26.42 0, 34.5 0 M34.5 0 C36.83 0, 38 1.17, 38 3.5 M34.5 0 C36.83 0, 38 1.17, 38 3.5 M38 3.5 C38 5.95, 38 8.4, 38 10.5 M38 3.5 C38 5.8, 38 8.1, 38 10.5 M38 10.5 C38 12.83, 36.83 14, 34.5 14 M38 10.5 C38 12.83, 36.83 14, 34.5 14 M34.5 14 C27.18 14, 19.87 14, 3.5 14 M34.5 14 C24.23 14, 13.96 14, 3.5 14 M3.5 14 C1.17 14, 0 12.83, 0 10.5 M3.5 14 C1.17 14, 0 12.83, 0 10.5 M0 10.5 C0 8.76, 0 7.03, 0 3.5 M0 10.5 C0 8.66, 0 6.82, 0 3.5 M0 3.5 C0 1.17, 1.17 0, 3.5 0 M0 3.5 C0 1.17, 1.17 0, 3.5 0" stroke="#0b7285" stroke-width="1" fill="none"></path></g><g stroke-linecap="round" transform="translate(408.5 195.5) rotate(0 47.5 75.5)"><path d="M23.75 0 M23.75 0 C33.57 0, 43.39 0, 71.25 0 M23.75 0 C41.9 0, 60.06 0, 71.25 0 M71.25 0 C87.08 0, 95 7.92, 95 23.75 M71.25 0 C87.08 0, 95 7.92, 95 23.75 M95 23.75 C95 58.61, 95 93.47, 95 127.25 M95 23.75 C95 47.13, 95 70.51, 95 127.25 M95 127.25 C95 143.08, 87.08 151, 71.25 151 M95 127.25 C95 143.08, 87.08 151, 71.25 151 M71.25 151 C55.27 151, 39.3 151, 23.75 151 M71.25 151 C60.9 151, 50.56 151, 23.75 151 M23.75 151 C7.92 151, 0 143.08, 0 127.25 M23.75 151 C7.92 151, 0 143.08, 0 127.25 M0 127.25 C0 94.36, 0 61.48, 0 23.75 M0 127.25 C0 96.55, 0 65.85, 0 23.75 M0 23.75 C0 7.92, 7.92 0, 23.75 0 M0 23.75 C0 7.92, 7.92 0, 23.75 0" stroke="#5c940d" stroke-width="1" fill="none"></path></g><g transform="translate(413.5 246) rotate(0 42.5 25)"><text x="42.5" y="18" font-family="Virgil, Segoe UI Emoji" font-size="20px" fill="#5c940d" text-anchor="middle" style="white-space: pre;" direction="ltr">Mini-Flux</text><text x="42.5" y="43" font-family="Virgil, Segoe UI Emoji" font-size="20px" fill="#5c940d" text-anchor="middle" style="white-space: pre;" direction="ltr">cluster</text></g><g stroke-linecap="round" transform="translate(517.5 227.5) rotate(0 19 7)"><path d="M3.5 0 M3.5 0 C11.39 0, 19.29 0, 34.5 0 M3.5 0 C13.89 0, 24.27 0, 34.5 0 M34.5 0 C36.83 0, 38 1.17, 38 3.5 M34.5 0 C36.83 0, 38 1.17, 38 3.5 M38 3.5 C38 5.8, 38 8.1, 38 10.5 M38 3.5 C38 4.94, 38 6.38, 38 10.5 M38 10.5 C38 12.83, 36.83 14, 34.5 14 M38 10.5 C38 12.83, 36.83 14, 34.5 14 M34.5 14 C25.45 14, 16.41 14, 3.5 14 M34.5 14 C23.58 14, 12.65 14, 3.5 14 M3.5 14 C1.17 14, 0 12.83, 0 10.5 M3.5 14 C1.17 14, 0 12.83, 0 10.5 M0 10.5 C0 7.89, 0 5.27, 0 3.5 M0 10.5 C0 8.06, 0 5.62, 0 3.5 M0 3.5 C0 1.17, 1.17 0, 3.5 0 M0 3.5 C0 1.17, 1.17 0, 3.5 0" stroke="#0b7285" stroke-width="1" fill="none"></path></g><g stroke-linecap="round" transform="translate(517.5 210.5) rotate(0 19 7)"><path d="M3.5 0 M3.5 0 C15.13 0, 26.76 0, 34.5 0 M3.5 0 C13.14 0, 22.78 0, 34.5 0 M34.5 0 C36.83 0, 38 1.17, 38 3.5 M34.5 0 C36.83 0, 38 1.17, 38 3.5 M38 3.5 C38 5.69, 38 7.89, 38 10.5 M38 3.5 C38 6.06, 38 8.61, 38 10.5 M38 10.5 C38 12.83, 36.83 14, 34.5 14 M38 10.5 C38 12.83, 36.83 14, 34.5 14 M34.5 14 C22.36 14, 10.23 14, 3.5 14 M34.5 14 C22.51 14, 10.52 14, 3.5 14 M3.5 14 C1.17 14, 0 12.83, 0 10.5 M3.5 14 C1.17 14, 0 12.83, 0 10.5 M0 10.5 C0 8.57, 0 6.63, 0 3.5 M0 10.5 C0 7.97, 0 5.43, 0 3.5 M0 3.5 C0 1.17, 1.17 0, 3.5 0 M0 3.5 C0 1.17, 1.17 0, 3.5 0" stroke="#0b7285" stroke-width="1" fill="none"></path></g><g stroke-linecap="round" transform="translate(557.5 209.5) rotate(0 19 7)"><path d="M3.5 0 M3.5 0 C14.71 0, 25.92 0, 34.5 0 M3.5 0 C14.62 0, 25.75 0, 34.5 0 M34.5 0 C36.83 0, 38 1.17, 38 3.5 M34.5 0 C36.83 0, 38 1.17, 38 3.5 M38 3.5 C38 5.72, 38 7.94, 38 10.5 M38 3.5 C38 5.65, 38 7.8, 38 10.5 M38 10.5 C38 12.83, 36.83 14, 34.5 14 M38 10.5 C38 12.83, 36.83 14, 34.5 14 M34.5 14 C27.27 14, 20.03 14, 3.5 14 M34.5 14 C25.92 14, 17.34 14, 3.5 14 M3.5 14 C1.17 14, 0 12.83, 0 10.5 M3.5 14 C1.17 14, 0 12.83, 0 10.5 M0 10.5 C0 8.18, 0 5.87, 0 3.5 M0 10.5 C0 9, 0 7.51, 0 3.5 M0 3.5 C0 1.17, 1.17 0, 3.5 0 M0 3.5 C0 1.17, 1.17 0, 3.5 0" stroke="#0b7285" stroke-width="1" fill="none"></path></g><g stroke-linecap="round" transform="translate(558.5 226.5) rotate(0 19 7)"><path d="M3.5 0 M3.5 0 C15.48 0, 27.46 0, 34.5 0 M3.5 0 C9.74 0, 15.98 0, 34.5 0 M34.5 0 C36.83 0, 38 1.17, 38 3.5 M34.5 0 C36.83 0, 38 1.17, 38 3.5 M38 3.5 C38 4.98, 38 6.45, 38 10.5 M38 3.5 C38 5.32, 38 7.14, 38 10.5 M38 10.5 C38 12.83, 36.83 14, 34.5 14 M38 10.5 C38 12.83, 36.83 14, 34.5 14 M34.5 14 C25.92 14, 17.33 14, 3.5 14 M34.5 14 C24.19 14, 13.89 14, 3.5 14 M3.5 14 C1.17 14, 0 12.83, 0 10.5 M3.5 14 C1.17 14, 0 12.83, 0 10.5 M0 10.5 C0 8.97, 0 7.45, 0 3.5 M0 10.5 C0 8.24, 0 5.98, 0 3.5 M0 3.5 C0 1.17, 1.17 0, 3.5 0 M0 3.5 C0 1.17, 1.17 0, 3.5 0" stroke="#0b7285" stroke-width="1" fill="none"></path></g><g stroke-linecap="round" transform="translate(509.5 197.5) rotate(0 47.5 75.5)"><path d="M23.75 0 M23.75 0 C34.64 0, 45.53 0, 71.25 0 M23.75 0 C34.92 0, 46.09 0, 71.25 0 M71.25 0 C87.08 0, 95 7.92, 95 23.75 M71.25 0 C87.08 0, 95 7.92, 95 23.75 M95 23.75 C95 58.81, 95 93.86, 95 127.25 M95 23.75 C95 52.09, 95 80.44, 95 127.25 M95 127.25 C95 143.08, 87.08 151, 71.25 151 M95 127.25 C95 143.08, 87.08 151, 71.25 151 M71.25 151 C57.83 151, 44.4 151, 23.75 151 M71.25 151 C53.55 151, 35.85 151, 23.75 151 M23.75 151 C7.92 151, 0 143.08, 0 127.25 M23.75 151 C7.92 151, 0 143.08, 0 127.25 M0 127.25 C0 95.61, 0 63.96, 0 23.75 M0 127.25 C0 94.25, 0 61.24, 0 23.75 M0 23.75 C0 7.92, 7.92 0, 23.75 0 M0 23.75 C0 7.92, 7.92 0, 23.75 0" stroke="#5c940d" stroke-width="1" fill="none"></path></g><g transform="translate(514.5 248) rotate(0 42.5 25)"><text x="42.5" y="18" font-family="Virgil, Segoe UI Emoji" font-size="20px" fill="#5c940d" text-anchor="middle" style="white-space: pre;" direction="ltr">Mini-Flux</text><text x="42.5" y="43" font-family="Virgil, Segoe UI Emoji" font-size="20px" fill="#5c940d" text-anchor="middle" style="white-space: pre;" direction="ltr">cluster</text></g><g transform="translate(102 645) rotate(0 553.5 13)"><text x="0" y="18" font-family="Virgil, Segoe UI Emoji" font-size="20px" fill="#5c940d" text-anchor="start" style="white-space: pre;" direction="ltr">Question1: What if the cluster runs out of capacity (the mini-cluster status stays pending and we check later)</text></g><g transform="translate(340 46) rotate(0 100.5 39)"><text x="0" y="18" font-family="Virgil, Segoe UI Emoji" font-size="20px" fill="#5c940d" text-anchor="start" style="white-space: pre;" direction="ltr">- Resources request</text><text x="0" y="44" font-family="Virgil, Segoe UI Emoji" font-size="20px" fill="#5c940d" text-anchor="start" style="white-space: pre;" direction="ltr">- Command + Args</text><text x="0" y="70" font-family="Virgil, Segoe UI Emoji" font-size="20px" fill="#5c940d" text-anchor="start" style="white-space: pre;" direction="ltr">- Status</text></g><g stroke-linecap="round" transform="translate(11 74) rotate(0 27 26.5)"><path d="M33.88 -0.06 C39.39 1.01, 46.24 5.88, 49.73 10.73 C53.22 15.58, 55.37 23.22, 54.82 29.04 C54.28 34.86, 50.62 41.68, 46.45 45.65 C42.28 49.62, 35.6 52.49, 29.8 52.84 C23.99 53.19, 16.27 50.93, 11.61 47.74 C6.96 44.55, 3.28 39.15, 1.86 33.68 C0.43 28.22, 0.82 20.03, 3.09 14.93 C5.36 9.84, 9.89 5.33, 15.47 3.11 C21.05 0.89, 32.92 1.66, 36.57 1.63 C40.22 1.6, 37.74 2.67, 37.35 2.93 M36.55 1.77 C41.55 3.63, 46.88 8.92, 49.62 13.88 C52.36 18.83, 53.62 26.26, 52.99 31.49 C52.36 36.72, 50.39 41.6, 45.85 45.25 C41.31 48.9, 31.7 53.25, 25.74 53.38 C19.78 53.52, 14.06 49.99, 10.09 46.07 C6.12 42.15, 3 35.33, 1.92 29.85 C0.84 24.38, 1.04 17.83, 3.61 13.22 C6.18 8.61, 11.89 4.17, 17.35 2.2 C22.81 0.22, 33.24 1.36, 36.38 1.37 C39.51 1.37, 36.46 1.69, 36.15 2.22" stroke="#000000" stroke-width="1" fill="none"></path></g><g transform="translate(36 127) rotate(0 -11 42)" stroke="none"><path fill="#000000" d="M 2.11,-1.05 Q 2.11,-1.05 2.72,0.09 3.32,1.24 3.68,2.90 4.04,4.56 4.05,6.74 4.06,8.91 4.13,10.36 4.19,11.81 4.18,13.59 4.16,15.37 4.30,17.14 4.43,18.91 4.46,21.32 4.49,23.74 4.51,24.96 4.54,26.19 4.54,27.57 4.54,28.95 4.62,30.49 4.71,32.02 4.78,33.12 4.85,34.21 4.93,35.73 5.02,37.25 5.08,38.75 5.15,40.26 5.15,41.36 5.16,42.47 4.71,43.66 4.25,44.84 3.74,45.98 3.23,47.11 2.35,48.07 1.47,49.03 0.30,50.25 -0.86,51.47 -1.82,52.86 -2.77,54.25 -3.76,55.71 -4.75,57.17 -5.69,59.12 -6.64,61.06 -7.91,63.09 -9.17,65.12 -10.58,67.33 -11.99,69.53 -13.23,71.45 -14.47,73.38 -15.11,74.95 -15.75,76.53 -17.01,78.15 -18.28,79.78 -19.10,81.07 -19.92,82.36 -20.40,83.61 -20.87,84.86 -21.13,85.31 -21.38,85.77 -21.77,86.12 -22.16,86.47 -22.64,86.68 -23.12,86.89 -23.64,86.93 -24.16,86.98 -24.66,86.85 -25.17,86.73 -25.61,86.45 -26.05,86.17 -26.38,85.76 -26.71,85.36 -26.89,84.87 -27.08,84.38 -27.09,83.86 -27.11,83.34 -26.96,82.84 -26.81,82.34 -26.50,81.91 -26.20,81.49 -25.78,81.18 -25.36,80.87 -24.86,80.72 -24.36,80.56 -23.84,80.57 -23.31,80.59 -22.82,80.76 -22.33,80.94 -21.92,81.27 -21.52,81.59 -21.23,82.03 -20.95,82.47 -20.82,82.98 -20.69,83.48 -20.73,84.00 -20.77,84.52 -20.98,85.00 -21.18,85.48 -21.53,85.87 -21.88,86.27 -22.33,86.52 -22.78,86.78 -23.30,86.88 -23.81,86.98 -24.33,86.92 -24.84,86.85 -25.31,86.62 -25.78,86.39 -26.15,86.02 -26.52,85.65 -26.76,85.19 -26.99,84.72 -27.06,84.20 -27.14,83.68 -27.04,83.17 -26.94,82.66 -26.94,82.66 -26.94,82.66 -25.24,79.83 -23.53,77.00 -22.73,76.08 -21.93,75.17 -21.16,73.88 -20.39,72.59 -19.28,70.47 -18.16,68.36 -17.63,67.24 -17.10,66.13 -16.40,64.92 -15.71,63.71 -14.84,61.90 -13.97,60.09 -13.12,58.97 -12.28,57.85 -11.98,56.37 -11.68,54.89 -10.45,53.54 -9.21,52.18 -8.45,51.05 -7.70,49.91 -7.16,48.95 -6.61,47.98 -5.55,46.90 -4.48,45.82 -3.22,44.62 -1.97,43.41 -1.56,41.83 -1.15,40.26 -1.08,38.75 -1.02,37.25 -0.93,35.73 -0.85,34.21 -0.78,33.12 -0.71,32.02 -0.62,30.49 -0.54,28.95 -0.54,27.57 -0.54,26.19 -0.52,24.96 -0.49,23.74 -0.46,21.34 -0.44,18.93 -0.33,17.18 -0.22,15.42 -0.27,13.69 -0.33,11.95 -0.34,10.54 -0.36,9.14 -0.69,6.24 -1.02,3.35 -1.57,2.20 -2.11,1.05 -2.21,0.79 -2.31,0.52 -2.33,0.23 -2.36,-0.04 -2.32,-0.32 -2.28,-0.61 -2.18,-0.87 -2.07,-1.14 -1.90,-1.37 -1.74,-1.60 -1.52,-1.79 -1.30,-1.97 -1.05,-2.10 -0.79,-2.23 -0.51,-2.29 -0.23,-2.35 0.04,-2.35 0.33,-2.34 0.60,-2.27 0.88,-2.19 1.13,-2.06 1.38,-1.92 1.59,-1.72 1.80,-1.53 1.96,-1.29 2.11,-1.05 2.11,-1.05 L 2.11,-1.05 Z"></path></g><g transform="translate(39 168) rotate(0 8 22)" stroke="none"><path fill="#000000" d="M 2.23,-1.11 Q 2.23,-1.11 3.01,0.65 3.78,2.42 4.25,3.92 4.71,5.42 5.47,7.26 6.22,9.11 6.53,10.60 6.85,12.08 7.58,13.98 8.31,15.87 8.88,17.60 9.45,19.33 10.01,20.85 10.57,22.38 11.15,23.93 11.73,25.48 12.26,26.44 12.78,27.41 12.98,28.77 13.18,30.13 14.09,31.73 15.00,33.32 15.51,34.32 16.02,35.31 16.55,36.30 17.07,37.29 18.14,39.95 19.22,42.60 19.32,43.16 19.42,43.71 19.33,44.27 19.25,44.84 18.99,45.34 18.73,45.84 18.32,46.24 17.92,46.63 17.40,46.88 16.89,47.12 16.33,47.19 15.77,47.26 15.21,47.15 14.66,47.03 14.17,46.74 13.68,46.46 13.30,46.03 12.93,45.60 12.71,45.08 12.50,44.55 12.46,43.99 12.42,43.42 12.57,42.87 12.71,42.33 13.02,41.85 13.34,41.38 13.78,41.03 14.23,40.68 14.77,40.49 15.30,40.31 15.87,40.30 16.44,40.29 16.98,40.47 17.52,40.64 17.97,40.98 18.43,41.32 18.75,41.78 19.07,42.25 19.23,42.79 19.39,43.34 19.37,43.90 19.34,44.47 19.14,45.00 18.94,45.53 18.58,45.96 18.21,46.40 17.73,46.70 17.25,47.00 16.70,47.13 16.14,47.26 15.58,47.20 15.02,47.15 14.50,46.92 13.98,46.68 13.56,46.30 13.15,45.91 12.88,45.42 12.60,44.92 12.60,44.92 12.60,44.92 12.01,42.59 11.41,40.27 10.90,39.22 10.39,38.18 9.59,36.73 8.80,35.29 8.04,33.83 7.27,32.37 7.41,31.16 7.54,29.95 6.75,28.33 5.95,26.70 5.41,24.71 4.87,22.71 4.40,21.01 3.92,19.30 3.54,17.34 3.16,15.38 2.61,14.36 2.06,13.34 1.60,11.10 1.15,8.87 0.67,7.79 0.19,6.71 -0.06,5.59 -0.33,4.47 -1.28,2.79 -2.23,1.11 -2.33,0.83 -2.43,0.55 -2.46,0.25 -2.50,-0.04 -2.45,-0.34 -2.41,-0.64 -2.30,-0.92 -2.19,-1.20 -2.01,-1.45 -1.83,-1.69 -1.60,-1.89 -1.37,-2.08 -1.11,-2.22 -0.84,-2.35 -0.54,-2.42 -0.25,-2.48 0.04,-2.48 0.35,-2.47 0.64,-2.39 0.93,-2.32 1.19,-2.17 1.46,-2.02 1.68,-1.82 1.90,-1.62 2.07,-1.36 2.23,-1.11 2.23,-1.11 L 2.23,-1.11 Z"></path></g><g transform="translate(10 131) rotate(0 32 6.5)" stroke="none"><path fill="#000000" d="M 0.77,-1.80 Q 0.77,-1.80 2.75,-0.86 4.72,0.07 7.16,0.75 9.59,1.42 11.57,2.01 13.55,2.61 15.85,3.48 18.16,4.35 20.56,5.31 22.97,6.26 24.92,7.28 26.86,8.29 27.92,8.56 28.97,8.83 31.09,9.55 33.21,10.28 34.38,10.44 35.55,10.59 36.71,10.31 37.87,10.02 39.29,9.39 40.72,8.75 43.04,7.50 45.35,6.24 46.59,5.37 47.83,4.49 49.21,3.92 50.58,3.36 53.08,2.58 55.58,1.81 57.00,0.72 58.42,-0.37 60.50,-1.81 62.59,-3.24 63.00,-3.36 63.41,-3.49 63.83,-3.47 64.26,-3.46 64.66,-3.31 65.06,-3.16 65.39,-2.89 65.72,-2.62 65.95,-2.26 66.18,-1.90 66.28,-1.49 66.38,-1.08 66.34,-0.65 66.30,-0.23 66.13,0.16 65.96,0.55 65.68,0.86 65.39,1.18 65.02,1.39 64.65,1.59 64.23,1.67 63.81,1.75 63.39,1.69 62.96,1.63 62.58,1.44 62.20,1.25 61.90,0.94 61.60,0.64 61.41,0.26 61.23,-0.11 61.17,-0.54 61.12,-0.96 61.20,-1.38 61.28,-1.80 61.49,-2.17 61.70,-2.54 62.02,-2.82 62.34,-3.10 62.73,-3.27 63.13,-3.44 63.55,-3.47 63.98,-3.50 64.39,-3.40 64.80,-3.29 65.16,-3.06 65.52,-2.83 65.79,-2.49 66.05,-2.16 66.20,-1.76 66.34,-1.36 66.35,-0.93 66.36,-0.51 66.23,-0.10 66.10,0.30 65.85,0.64 65.60,0.99 65.26,1.24 64.91,1.48 64.91,1.48 64.91,1.48 63.38,2.63 61.85,3.77 60.59,4.26 59.33,4.75 58.26,5.42 57.20,6.08 55.29,6.86 53.38,7.63 51.87,7.90 50.36,8.17 49.03,9.10 47.70,10.04 45.32,11.69 42.94,13.33 40.41,14.34 37.87,15.34 36.24,15.20 34.60,15.05 32.94,14.42 31.29,13.79 29.54,12.87 27.80,11.95 26.68,11.39 25.56,10.84 23.74,9.92 21.92,9.01 19.52,8.12 17.12,7.23 14.89,6.47 12.65,5.71 10.71,5.17 8.77,4.64 6.05,4.00 3.32,3.37 1.27,2.58 -0.77,1.80 -0.97,1.68 -1.18,1.56 -1.35,1.40 -1.52,1.23 -1.65,1.03 -1.77,0.83 -1.85,0.61 -1.92,0.38 -1.94,0.15 -1.96,-0.08 -1.92,-0.31 -1.88,-0.55 -1.79,-0.76 -1.69,-0.98 -1.55,-1.17 -1.41,-1.36 -1.23,-1.51 -1.04,-1.66 -0.83,-1.76 -0.61,-1.86 -0.38,-1.91 -0.15,-1.95 0.08,-1.94 0.31,-1.93 0.54,-1.87 0.77,-1.80 0.77,-1.80 L 0.77,-1.80 Z"></path></g><g transform="translate(816 389) rotate(0 162.5 26)"><text x="0" y="18" font-family="Virgil, Segoe UI Emoji" font-size="20px" fill="#5c940d" text-anchor="start" style="white-space: pre;" direction="ltr">- Resources available</text><text x="0" y="44" font-family="Virgil, Segoe UI Emoji" font-size="20px" fill="#5c940d" text-anchor="start" style="white-space: pre;" direction="ltr">- Default Mini-Flux Configuration</text></g><g stroke-linecap="round" transform="translate(643.5 129) rotate(0 40.5 52)"><path d="M20.25 0 M20.25 0 C28.41 -0.43, 40.75 -1.82, 60.75 0 M20.25 0 C28.11 -0.11, 36.95 0.45, 60.75 0 M60.75 0 C73.75 -1.88, 79.27 5.1, 81 20.25 M60.75 0 C75.51 1.9, 79.62 4.49, 81 20.25 M81 20.25 C82.31 39.97, 82.86 60.28, 81 83.75 M81 20.25 C81.38 41.74, 80.64 61.72, 81 83.75 M81 83.75 C82.68 98.68, 75.16 104.7, 60.75 104 M81 83.75 C80.92 95.16, 72.44 103.22, 60.75 104 M60.75 104 C53.19 103.07, 41.97 102.62, 20.25 104 M60.75 104 C48.15 103.61, 34.24 104.44, 20.25 104 M20.25 104 C7.07 103.93, -1.59 95.81, 0 83.75 M20.25 104 C4.6 106.11, 0.2 97.88, 0 83.75 M0 83.75 C-1.07 64.92, 2.02 45.51, 0 20.25 M0 83.75 C-0.14 60.38, 0.73 36.84, 0 20.25 M0 20.25 C-0.95 7.57, 7.35 -1.29, 20.25 0 M0 20.25 C1.3 6.34, 4.95 1.85, 20.25 0" stroke="#d9480f" stroke-width="1" fill="none"></path></g><g transform="translate(662.5 143) rotate(0 21.5 13)"><text x="0" y="18" font-family="Virgil, Segoe UI Emoji" font-size="20px" fill="#d9480f" text-anchor="start" style="white-space: pre;" direction="ltr">CRD</text></g><g transform="translate(646 99.5) rotate(0 54 12.5)"><text x="0" y="18" font-family="Virgil, Segoe UI Emoji" font-size="20px" fill="#000000" text-anchor="start" style="white-space: pre;" direction="ltr">mini-cluster</text></g><g stroke-linecap="round"><g transform="translate(433.5799199644389 151.8135811587823) rotate(0 100.71004001778056 -0.862101471452263)"><path d="M0 0 C33.57 -0.29, 167.85 -1.44, 201.42 -1.72 M0 0 C33.57 -0.29, 167.85 -1.44, 201.42 -1.72" stroke="#5c940d" stroke-width="1" fill="none"></path></g><g transform="translate(433.5799199644389 151.8135811587823) rotate(0 100.71004001778056 -0.862101471452263)"><path d="M173.32 8.78 C184.41 4.63, 195.49 0.49, 201.42 -1.72 M173.32 8.78 C183.7 4.9, 194.07 1.02, 201.42 -1.72" stroke="#5c940d" stroke-width="1" fill="none"></path></g><g transform="translate(433.5799199644389 151.8135811587823) rotate(0 100.71004001778056 -0.862101471452263)"><path d="M173.14 -11.74 C184.3 -7.79, 195.46 -3.84, 201.42 -1.72 M173.14 -11.74 C183.59 -8.04, 194.03 -4.34, 201.42 -1.72" stroke="#5c940d" stroke-width="1" fill="none"></path></g></g><g stroke-linecap="round"><g transform="translate(671 408) rotate(0 1.7266135185594749 -85.99154207780958)"><path d="M-0.76 -0.25 C0.11 -28.59, 4.01 -142.96, 4.11 -171.74 M4.03 -2.85 C4.81 -30.63, 2.77 -140.52, 3.02 -168.51" stroke="#862e9c" stroke-width="1" fill="none"></path></g><g transform="translate(671 408) rotate(0 1.7266135185594749 -85.99154207780958)"><path d="M13.1 -137.36 C10 -150.87, 5.64 -152.66, 5.69 -169.04 M14.53 -141.33 C11.26 -147.78, 7.44 -153.94, 2.8 -167.89" stroke="#862e9c" stroke-width="1" fill="none"></path></g><g transform="translate(671 408) rotate(0 1.7266135185594749 -85.99154207780958)"><path d="M-7.43 -137.24 C-5.16 -150.67, -4.17 -152.49, 5.69 -169.04 M-6 -141.21 C-3.64 -148.08, -1.84 -154.27, 2.8 -167.89" stroke="#862e9c" stroke-width="1" fill="none"></path></g></g><g transform="translate(472 127) rotate(0 34.5 12.5)"><text x="0" y="18" font-family="Virgil, Segoe UI Emoji" font-size="20px" fill="#000000" text-anchor="start" style="white-space: pre;" direction="ltr">Create</text></g><g transform="translate(689 293) rotate(0 29 13)"><text x="0" y="18" font-family="Virgil, Segoe UI Emoji" font-size="20px" fill="#000000" text-anchor="start" style="white-space: pre;" direction="ltr">watch</text></g><g stroke-linecap="round"><g transform="translate(652 241) rotate(0 -1.268245919579499 91.59923083856702)"><path d="M0.57 1.57 C0.12 31.01, -0.53 150.07, -0.86 179.39 M-2.57 -0.04 C-3.53 31.11, -2.87 153.26, -3.03 183.24" stroke="#862e9c" stroke-width="1" fill="none"></path></g><g transform="translate(652 241) rotate(0 -1.268245919579499 91.59923083856702)"><path d="M-11.05 155.24 C-8.44 164.63, -7.38 174.68, 0.08 179.51 M-13.26 154.88 C-8.85 163.17, -7.15 167.56, -3.71 182.34" stroke="#862e9c" stroke-width="1" fill="none"></path></g><g transform="translate(652 241) rotate(0 -1.268245919579499 91.59923083856702)"><path d="M9.47 155.24 C4.61 164.71, -1.82 174.76, 0.08 179.51 M7.26 154.87 C6.87 163.18, 3.78 167.57, -3.71 182.34" stroke="#862e9c" stroke-width="1" fill="none"></path></g></g><g transform="translate(97 686) rotate(0 521.5 117)"><text x="0" y="18" font-family="Virgil, Segoe UI Emoji" font-size="20px" fill="#000000" text-anchor="start" style="white-space: pre;" direction="ltr">1. FluxJob request comes from the user</text><text x="0" y="44" font-family="Virgil, Segoe UI Emoji" font-size="20px" fill="#000000" text-anchor="start" style="white-space: pre;" direction="ltr">2. The FluxJob creates a mini-cluster, sets its own status to PENDING (reason, waiting for resources)</text><text x="0" y="70" font-family="Virgil, Segoe UI Emoji" font-size="20px" fill="#000000" text-anchor="start" style="white-space: pre;" direction="ltr">3. FluxSetup is watching for mini-cluster creation</text><text x="0" y="96" font-family="Virgil, Segoe UI Emoji" font-size="20px" fill="#000000" text-anchor="start" style="white-space: pre;" direction="ltr">4. Flux-Setup either:</text><text x="0" y="122" font-family="Virgil, Segoe UI Emoji" font-size="20px" fill="#000000" text-anchor="start" style="white-space: pre;" direction="ltr">    - determines there are enough resources, creates , updates status</text><text x="0" y="148" font-family="Virgil, Segoe UI Emoji" font-size="20px" fill="#000000" text-anchor="start" style="white-space: pre;" direction="ltr">    - finds there are podless stateful sets, cleans them up, </text><text x="0" y="174" font-family="Virgil, Segoe UI Emoji" font-size="20px" fill="#000000" text-anchor="start" style="white-space: pre;" direction="ltr">5. Each FluxJob is also watching for a specific mini-cluster update, if status is READY we run the job</text><text x="0" y="200" font-family="Virgil, Segoe UI Emoji" font-size="20px" fill="#000000" text-anchor="start" style="white-space: pre;" direction="ltr">6. The mini-cluster is done when the pods no longer exist</text><text x="0" y="226" font-family="Virgil, Segoe UI Emoji" font-size="20px" fill="#000000" text-anchor="start" style="white-space: pre;" direction="ltr">7. A random uid plus the flux job name gives an identifier </text></g><g transform="translate(829.5 476.5) rotate(0 151.5 12.5)"><text x="0" y="18" font-family="Virgil, Segoe UI Emoji" font-size="20px" fill="#000000" text-anchor="start" style="white-space: pre;" direction="ltr">Admin min and Max parameters</text></g><g transform="translate(731.5 145) rotate(0 63 39)"><text x="0" y="18" font-family="Virgil, Segoe UI Emoji" font-size="20px" fill="#5c940d" text-anchor="start" style="white-space: pre;" direction="ltr">- Resources </text><text x="0" y="44" font-family="Virgil, Segoe UI Emoji" font-size="20px" fill="#5c940d" text-anchor="start" style="white-space: pre;" direction="ltr">- Status</text><text x="0" y="70" font-family="Virgil, Segoe UI Emoji" font-size="20px" fill="#5c940d" text-anchor="start" style="white-space: pre;" direction="ltr">- Identifier</text></g></svg>