<svg version="1.1" xmlns="http://www.w3.org/2000/svg" viewBox="0 0 774 896" width="774" height="896">
  <!-- svg-source:excalidraw -->
  
  <defs>
    <style>
      @font-face {
        font-family: "Virgil";
        src: url("https://excalidraw.com/Virgil.woff2");
      }
      @font-face {
        font-family: "Cascadia";
        src: url("https://excalidraw.com/Cascadia.woff2");
      }
    </style>
  </defs>
  <rect x="0" y="0" width="774" height="896" fill="#ffffff"></rect><g stroke-linecap="round" transform="translate(536 271) rotate(0 114 165.5)"><path d="M57 0 M57 0 C90.16 0.76, 120.07 1.06, 171 0 M57 0 C96.44 0.41, 136.77 1.12, 171 0 M171 0 C210.34 1.02, 226.01 18.43, 228 57 M171 0 C209.47 0.07, 228.09 20.35, 228 57 M228 57 C228.7 106.45, 231.02 154.84, 228 274 M228 57 C227.83 119, 228.83 181.72, 228 274 M228 274 C228.96 311.71, 210.58 332.87, 171 331 M228 274 C227.81 313.47, 208.17 329.2, 171 331 M171 331 C130.53 328.33, 91.48 328.41, 57 331 M171 331 C137.68 330.01, 103.7 330.63, 57 331 M57 331 C19.44 330.68, -1.67 312.24, 0 274 M57 331 C17.21 332.34, -1.35 310.47, 0 274 M0 274 C-0.2 224.89, 0.79 175.41, 0 57 M0 274 C2.12 229.28, 1.68 184.47, 0 57 M0 57 C-0.23 20.92, 20.15 -1.09, 57 0 M0 57 C1.73 18.92, 18.88 -1.79, 57 0" stroke="#364fc7" stroke-width="1" fill="none"></path></g><g transform="translate(597 616) rotate(0 54 12.5)"><text x="0" y="18" font-family="Virgil, Segoe UI Emoji" font-size="20px" fill="#364fc7" text-anchor="start" style="white-space: pre;" direction="ltr">Kubernetes</text></g><g stroke-linecap="round" transform="translate(195 274) rotate(0 53 49.5)"><path d="M66.12 1.93 C74.23 3.48, 83.4 9.64, 89.87 15.56 C96.33 21.47, 102.72 29.64, 104.93 37.43 C107.14 45.21, 105.54 54.37, 103.13 62.25 C100.73 70.13, 96.61 78.75, 90.5 84.7 C84.4 90.65, 75.21 95.72, 66.51 97.96 C57.82 100.2, 47.02 100.48, 38.33 98.12 C29.64 95.76, 20.5 89.67, 14.37 83.79 C8.25 77.92, 3.81 70.78, 1.57 62.87 C-0.67 54.97, -1.44 44.59, 0.93 36.36 C3.3 28.13, 9.43 19.44, 15.8 13.5 C22.16 7.56, 29.38 2.48, 39.12 0.71 C48.87 -1.06, 67.52 1.74, 74.29 2.87 C81.05 4, 80.05 6.41, 79.72 7.49 M49.68 0.79 C57.75 -0.38, 68.94 0.77, 76.89 4.27 C84.84 7.78, 92.5 14.81, 97.38 21.82 C102.27 28.83, 105.79 38.07, 106.21 46.34 C106.63 54.62, 104.07 63.83, 99.9 71.49 C95.74 79.15, 88.9 87.57, 81.22 92.3 C73.53 97.04, 62.67 99.67, 53.79 99.9 C44.92 100.12, 35.59 97.86, 27.96 93.66 C20.32 89.47, 12.59 81.94, 7.97 74.71 C3.35 67.49, 0.4 58.52, 0.23 50.34 C0.06 42.16, 3.03 32.91, 6.94 25.63 C10.84 18.34, 16.51 10.84, 23.66 6.62 C30.81 2.41, 45.53 1.17, 49.86 0.36 C54.19 -0.45, 49.51 0.8, 49.64 1.77" stroke="#e67700" stroke-width="1" fill="none"></path></g><g stroke-linecap="round" transform="translate(117 53) rotate(0 40.5 52)"><path d="M20.25 0 M20.25 0 C32.88 0.44, 47.29 1.86, 60.75 0 M20.25 0 C34.83 0.61, 50.02 0.44, 60.75 0 M60.75 0 C75.43 -1.42, 82.74 4.81, 81 20.25 M60.75 0 C73.01 -0.39, 82.81 4.59, 81 20.25 M81 20.25 C80.26 36.8, 82.55 55, 81 83.75 M81 20.25 C81.84 42.27, 81.55 64.09, 81 83.75 M81 83.75 C79.43 98.25, 73.28 102.14, 60.75 104 M81 83.75 C80.38 95.39, 74.63 102.23, 60.75 104 M60.75 104 C49.98 102.16, 37.87 103.4, 20.25 104 M60.75 104 C47.84 102.88, 35.26 103.08, 20.25 104 M20.25 104 C5.42 102.61, -1.32 97.67, 0 83.75 M20.25 104 C4.83 105.13, -0.61 99.02, 0 83.75 M0 83.75 C1.86 70.83, 0.85 57.72, 0 20.25 M0 83.75 C-1.15 66.17, -0.64 47.03, 0 20.25 M0 20.25 C-1.55 6.7, 4.87 0.35, 20.25 0 M0 20.25 C-1.93 8.25, 6.32 -1.07, 20.25 0" stroke="#d9480f" stroke-width="1" fill="none"></path></g><g transform="translate(134 91) rotate(0 21.5 13)"><text x="0" y="18" font-family="Virgil, Segoe UI Emoji" font-size="20px" fill="#d9480f" text-anchor="start" style="white-space: pre;" direction="ltr">CRD</text></g><g transform="translate(118 14) rotate(0 53 13)"><text x="0" y="18" font-family="Virgil, Segoe UI Emoji" font-size="20px" fill="#000000" text-anchor="start" style="white-space: pre;" direction="ltr">MiniCluster</text></g><g stroke-linecap="round" transform="translate(144.51006988236315 195.7038287155134) rotate(71.36187550561161 62.9899301176369 18.79617128448649)"><path d="M67.17 -1.93 C77.6 -1.89, 88.71 1.1, 97.99 3.05 C107.27 5, 118.38 6.55, 122.83 9.78 C127.29 13, 127.32 18.87, 124.73 22.38 C122.14 25.89, 115.32 28.15, 107.29 30.84 C99.26 33.53, 87.62 37.38, 76.56 38.51 C65.49 39.63, 51.42 38.64, 40.92 37.57 C30.42 36.51, 19.98 34.96, 13.53 32.13 C7.08 29.29, 3.13 24.34, 2.21 20.59 C1.29 16.84, 3.49 12.44, 8.03 9.61 C12.57 6.78, 15.28 5.11, 29.44 3.61 C43.61 2.1, 78.91 0, 93.01 0.58 C107.12 1.16, 114.37 6.75, 114.07 7.08" stroke="#d9480f" stroke-width="1.5" fill="none" stroke-dasharray="1.5 7"></path></g><g transform="translate(200 311) rotate(0 48 12.5)"><text x="48" y="18" font-family="Virgil, Segoe UI Emoji" font-size="20px" fill="#d9480f" text-anchor="middle" style="white-space: pre;" direction="ltr">Reconcile</text></g><g stroke-linecap="round" transform="translate(559.5 319.5) rotate(0 19 7)"><path d="M3.5 0 M3.5 0 C12.92 0, 22.34 0, 34.5 0 M3.5 0 C15.24 0, 26.99 0, 34.5 0 M34.5 0 C36.83 0, 38 1.17, 38 3.5 M34.5 0 C36.83 0, 38 1.17, 38 3.5 M38 3.5 C38 5.35, 38 7.2, 38 10.5 M38 3.5 C38 5.72, 38 7.93, 38 10.5 M38 10.5 C38 12.83, 36.83 14, 34.5 14 M38 10.5 C38 12.83, 36.83 14, 34.5 14 M34.5 14 C27.01 14, 19.53 14, 3.5 14 M34.5 14 C26.02 14, 17.54 14, 3.5 14 M3.5 14 C1.17 14, 0 12.83, 0 10.5 M3.5 14 C1.17 14, 0 12.83, 0 10.5 M0 10.5 C0 8.44, 0 6.37, 0 3.5 M0 10.5 C0 8.53, 0 6.56, 0 3.5 M0 3.5 C0 1.17, 1.17 0, 3.5 0 M0 3.5 C0 1.17, 1.17 0, 3.5 0" stroke="#0b7285" stroke-width="1" fill="none"></path></g><g stroke-linecap="round" transform="translate(559.5 302.5) rotate(0 19 7)"><path d="M3.5 0 M3.5 0 C14.62 0, 25.75 0, 34.5 0 M3.5 0 C9.89 0, 16.27 0, 34.5 0 M34.5 0 C36.83 0, 38 1.17, 38 3.5 M34.5 0 C36.83 0, 38 1.17, 38 3.5 M38 3.5 C38 5.05, 38 6.6, 38 10.5 M38 3.5 C38 5.06, 38 6.63, 38 10.5 M38 10.5 C38 12.83, 36.83 14, 34.5 14 M38 10.5 C38 12.83, 36.83 14, 34.5 14 M34.5 14 C27.27 14, 20.04 14, 3.5 14 M34.5 14 C22.82 14, 11.14 14, 3.5 14 M3.5 14 C1.17 14, 0 12.83, 0 10.5 M3.5 14 C1.17 14, 0 12.83, 0 10.5 M0 10.5 C0 8.94, 0 7.39, 0 3.5 M0 10.5 C0 8.72, 0 6.95, 0 3.5 M0 3.5 C0 1.17, 1.17 0, 3.5 0 M0 3.5 C0 1.17, 1.17 0, 3.5 0" stroke="#0b7285" stroke-width="1" fill="none"></path></g><g stroke-linecap="round" transform="translate(599.5 301.5) rotate(0 19 7)"><path d="M3.5 0 M3.5 0 C10.61 0, 17.71 0, 34.5 0 M3.5 0 C12.47 0, 21.44 0, 34.5 0 M34.5 0 C36.83 0, 38 1.17, 38 3.5 M34.5 0 C36.83 0, 38 1.17, 38 3.5 M38 3.5 C38 5.95, 38 8.4, 38 10.5 M38 3.5 C38 5.59, 38 7.67, 38 10.5 M38 10.5 C38 12.83, 36.83 14, 34.5 14 M38 10.5 C38 12.83, 36.83 14, 34.5 14 M34.5 14 C27.36 14, 20.22 14, 3.5 14 M34.5 14 C28.1 14, 21.7 14, 3.5 14 M3.5 14 C1.17 14, 0 12.83, 0 10.5 M3.5 14 C1.17 14, 0 12.83, 0 10.5 M0 10.5 C0 8.42, 0 6.33, 0 3.5 M0 10.5 C0 7.94, 0 5.39, 0 3.5 M0 3.5 C0 1.17, 1.17 0, 3.5 0 M0 3.5 C0 1.17, 1.17 0, 3.5 0" stroke="#0b7285" stroke-width="1" fill="none"></path></g><g stroke-linecap="round" transform="translate(600.5 318.5) rotate(0 19 7)"><path d="M3.5 0 M3.5 0 C15.5 0, 27.5 0, 34.5 0 M3.5 0 C13.1 0, 22.7 0, 34.5 0 M34.5 0 C36.83 0, 38 1.17, 38 3.5 M34.5 0 C36.83 0, 38 1.17, 38 3.5 M38 3.5 C38 5.26, 38 7.02, 38 10.5 M38 3.5 C38 5.13, 38 6.76, 38 10.5 M38 10.5 C38 12.83, 36.83 14, 34.5 14 M38 10.5 C38 12.83, 36.83 14, 34.5 14 M34.5 14 C27.25 14, 20 14, 3.5 14 M34.5 14 C27.72 14, 20.94 14, 3.5 14 M3.5 14 C1.17 14, 0 12.83, 0 10.5 M3.5 14 C1.17 14, 0 12.83, 0 10.5 M0 10.5 C0 9.06, 0 7.62, 0 3.5 M0 10.5 C0 8.23, 0 5.97, 0 3.5 M0 3.5 C0 1.17, 1.17 0, 3.5 0 M0 3.5 C0 1.17, 1.17 0, 3.5 0" stroke="#0b7285" stroke-width="1" fill="none"></path></g><g stroke-linecap="round" transform="translate(550.5 288.5) rotate(0 47.5 75.5)"><path d="M23.75 0 M23.75 0 C33.38 0, 43.01 0, 71.25 0 M23.75 0 C34.03 0, 44.3 0, 71.25 0 M71.25 0 C87.08 0, 95 7.92, 95 23.75 M71.25 0 C87.08 0, 95 7.92, 95 23.75 M95 23.75 C95 45.19, 95 66.64, 95 127.25 M95 23.75 C95 53.98, 95 84.2, 95 127.25 M95 127.25 C95 143.08, 87.08 151, 71.25 151 M95 127.25 C95 143.08, 87.08 151, 71.25 151 M71.25 151 C56 151, 40.74 151, 23.75 151 M71.25 151 C61.62 151, 51.98 151, 23.75 151 M23.75 151 C7.92 151, 0 143.08, 0 127.25 M23.75 151 C7.92 151, 0 143.08, 0 127.25 M0 127.25 C0 94.4, 0 61.54, 0 23.75 M0 127.25 C0 102.22, 0 77.19, 0 23.75 M0 23.75 C0 7.92, 7.92 0, 23.75 0 M0 23.75 C0 7.92, 7.92 0, 23.75 0" stroke="#5c940d" stroke-width="1" fill="none"></path></g><g transform="translate(555.5 339) rotate(0 42.5 25)"><text x="42.5" y="18" font-family="Virgil, Segoe UI Emoji" font-size="20px" fill="#5c940d" text-anchor="middle" style="white-space: pre;" direction="ltr">Mini-Flux</text><text x="42.5" y="43" font-family="Virgil, Segoe UI Emoji" font-size="20px" fill="#5c940d" text-anchor="middle" style="white-space: pre;" direction="ltr">cluster</text></g><g stroke-linecap="round" transform="translate(659.5 320.5) rotate(0 19 7)"><path d="M3.5 0 M3.5 0 C12.28 0, 21.05 0, 34.5 0 M3.5 0 C9.97 0, 16.43 0, 34.5 0 M34.5 0 C36.83 0, 38 1.17, 38 3.5 M34.5 0 C36.83 0, 38 1.17, 38 3.5 M38 3.5 C38 5.04, 38 6.57, 38 10.5 M38 3.5 C38 4.97, 38 6.44, 38 10.5 M38 10.5 C38 12.83, 36.83 14, 34.5 14 M38 10.5 C38 12.83, 36.83 14, 34.5 14 M34.5 14 C23.68 14, 12.85 14, 3.5 14 M34.5 14 C24.9 14, 15.29 14, 3.5 14 M3.5 14 C1.17 14, 0 12.83, 0 10.5 M3.5 14 C1.17 14, 0 12.83, 0 10.5 M0 10.5 C0 7.94, 0 5.39, 0 3.5 M0 10.5 C0 7.91, 0 5.32, 0 3.5 M0 3.5 C0 1.17, 1.17 0, 3.5 0 M0 3.5 C0 1.17, 1.17 0, 3.5 0" stroke="#0b7285" stroke-width="1" fill="none"></path></g><g stroke-linecap="round" transform="translate(659.5 303.5) rotate(0 19 7)"><path d="M3.5 0 M3.5 0 C15.24 0, 26.99 0, 34.5 0 M3.5 0 C15.1 0, 26.7 0, 34.5 0 M34.5 0 C36.83 0, 38 1.17, 38 3.5 M34.5 0 C36.83 0, 38 1.17, 38 3.5 M38 3.5 C38 5.72, 38 7.93, 38 10.5 M38 3.5 C38 6.04, 38 8.57, 38 10.5 M38 10.5 C38 12.83, 36.83 14, 34.5 14 M38 10.5 C38 12.83, 36.83 14, 34.5 14 M34.5 14 C26.02 14, 17.54 14, 3.5 14 M34.5 14 C24.68 14, 14.87 14, 3.5 14 M3.5 14 C1.17 14, 0 12.83, 0 10.5 M3.5 14 C1.17 14, 0 12.83, 0 10.5 M0 10.5 C0 8.53, 0 6.56, 0 3.5 M0 10.5 C0 8, 0 5.5, 0 3.5 M0 3.5 C0 1.17, 1.17 0, 3.5 0 M0 3.5 C0 1.17, 1.17 0, 3.5 0" stroke="#0b7285" stroke-width="1" fill="none"></path></g><g stroke-linecap="round" transform="translate(699.5 302.5) rotate(0 19 7)"><path d="M3.5 0 M3.5 0 C9.89 0, 16.27 0, 34.5 0 M3.5 0 C9.7 0, 15.91 0, 34.5 0 M34.5 0 C36.83 0, 38 1.17, 38 3.5 M34.5 0 C36.83 0, 38 1.17, 38 3.5 M38 3.5 C38 5.06, 38 6.63, 38 10.5 M38 3.5 C38 5.4, 38 7.3, 38 10.5 M38 10.5 C38 12.83, 36.83 14, 34.5 14 M38 10.5 C38 12.83, 36.83 14, 34.5 14 M34.5 14 C22.82 14, 11.14 14, 3.5 14 M34.5 14 C24.89 14, 15.29 14, 3.5 14 M3.5 14 C1.17 14, 0 12.83, 0 10.5 M3.5 14 C1.17 14, 0 12.83, 0 10.5 M0 10.5 C0 8.72, 0 6.95, 0 3.5 M0 10.5 C0 7.92, 0 5.33, 0 3.5 M0 3.5 C0 1.17, 1.17 0, 3.5 0 M0 3.5 C0 1.17, 1.17 0, 3.5 0" stroke="#0b7285" stroke-width="1" fill="none"></path></g><g stroke-linecap="round" transform="translate(700.5 319.5) rotate(0 19 7)"><path d="M3.5 0 M3.5 0 C12.47 0, 21.44 0, 34.5 0 M3.5 0 C14.29 0, 25.08 0, 34.5 0 M34.5 0 C36.83 0, 38 1.17, 38 3.5 M34.5 0 C36.83 0, 38 1.17, 38 3.5 M38 3.5 C38 5.59, 38 7.67, 38 10.5 M38 3.5 C38 5.75, 38 8.01, 38 10.5 M38 10.5 C38 12.83, 36.83 14, 34.5 14 M38 10.5 C38 12.83, 36.83 14, 34.5 14 M34.5 14 C28.1 14, 21.7 14, 3.5 14 M34.5 14 C25.55 14, 16.6 14, 3.5 14 M3.5 14 C1.17 14, 0 12.83, 0 10.5 M3.5 14 C1.17 14, 0 12.83, 0 10.5 M0 10.5 C0 7.94, 0 5.39, 0 3.5 M0 10.5 C0 7.95, 0 5.41, 0 3.5 M0 3.5 C0 1.17, 1.17 0, 3.5 0 M0 3.5 C0 1.17, 1.17 0, 3.5 0" stroke="#0b7285" stroke-width="1" fill="none"></path></g><g stroke-linecap="round" transform="translate(651.5 290.5) rotate(0 47.5 75.5)"><path d="M23.75 0 M23.75 0 C38.46 0, 53.17 0, 71.25 0 M23.75 0 C37.3 0, 50.85 0, 71.25 0 M71.25 0 C87.08 0, 95 7.92, 95 23.75 M71.25 0 C87.08 0, 95 7.92, 95 23.75 M95 23.75 C95 47.86, 95 71.97, 95 127.25 M95 23.75 C95 53.12, 95 82.49, 95 127.25 M95 127.25 C95 143.08, 87.08 151, 71.25 151 M95 127.25 C95 143.08, 87.08 151, 71.25 151 M71.25 151 C60.86 151, 50.47 151, 23.75 151 M71.25 151 C52.45 151, 33.64 151, 23.75 151 M23.75 151 C7.92 151, 0 143.08, 0 127.25 M23.75 151 C7.92 151, 0 143.08, 0 127.25 M0 127.25 C0 93.75, 0 60.25, 0 23.75 M0 127.25 C0 96.86, 0 66.47, 0 23.75 M0 23.75 C0 7.92, 7.92 0, 23.75 0 M0 23.75 C0 7.92, 7.92 0, 23.75 0" stroke="#5c940d" stroke-width="1" fill="none"></path></g><g transform="translate(656.5 341) rotate(0 42.5 25)"><text x="42.5" y="18" font-family="Virgil, Segoe UI Emoji" font-size="20px" fill="#5c940d" text-anchor="middle" style="white-space: pre;" direction="ltr">Mini-Flux</text><text x="42.5" y="43" font-family="Virgil, Segoe UI Emoji" font-size="20px" fill="#5c940d" text-anchor="middle" style="white-space: pre;" direction="ltr">cluster</text></g><g transform="translate(211 64.5) rotate(0 33.5 31.5)"><text x="0" y="15" font-family="Virgil, Segoe UI Emoji" font-size="16px" fill="#5c940d" text-anchor="start" style="white-space: pre;" direction="ltr">Size</text><text x="0" y="36" font-family="Virgil, Segoe UI Emoji" font-size="16px" fill="#5c940d" text-anchor="start" style="white-space: pre;" direction="ltr">Command</text><text x="0" y="57" font-family="Virgil, Segoe UI Emoji" font-size="16px" fill="#5c940d" text-anchor="start" style="white-space: pre;" direction="ltr">Status</text></g><g stroke-linecap="round" transform="translate(11 10) rotate(0 27 26.5)"><path d="M24.93 0.71 C30.2 -0.31, 37.64 1.09, 42.43 4.22 C47.22 7.35, 52.35 13.92, 53.68 19.51 C55 25.1, 53.12 32.54, 50.38 37.76 C47.65 42.98, 42.52 48.47, 37.27 50.84 C32.02 53.21, 24.43 53.57, 18.89 51.98 C13.34 50.39, 7.02 46.16, 4 41.32 C0.99 36.48, -0.01 28.61, 0.79 22.93 C1.58 17.24, 4.21 11.07, 8.8 7.22 C13.38 3.38, 24.71 0.9, 28.27 -0.14 C31.83 -1.19, 30.34 0.38, 30.16 0.95 M18.22 1.44 C23.34 -0.14, 30.98 0.51, 36.4 2.89 C41.81 5.26, 48.13 10.97, 50.71 15.72 C53.29 20.46, 53.38 25.84, 51.88 31.35 C50.38 36.85, 46.08 45.09, 41.71 48.74 C37.33 52.38, 31.13 53.72, 25.63 53.21 C20.12 52.69, 12.66 49.43, 8.66 45.64 C4.66 41.85, 2.47 35.91, 1.63 30.49 C0.78 25.07, 0.67 18.01, 3.6 13.11 C6.52 8.2, 16.72 2.96, 19.16 1.05 C21.59 -0.87, 18.3 1.12, 18.2 1.6" stroke="#000000" stroke-width="1" fill="none"></path></g><g transform="translate(36 63) rotate(0 -11 42)" stroke="none"><path fill="#000000" d="M 2.11,-1.05 Q 2.11,-1.05 2.72,0.09 3.32,1.24 3.68,2.90 4.04,4.56 4.05,6.74 4.06,8.91 4.13,10.36 4.19,11.81 4.18,13.59 4.16,15.37 4.30,17.14 4.43,18.91 4.46,21.32 4.49,23.74 4.51,24.96 4.54,26.19 4.54,27.57 4.54,28.95 4.62,30.49 4.71,32.02 4.78,33.12 4.85,34.21 4.93,35.73 5.02,37.25 5.08,38.75 5.15,40.26 5.15,41.36 5.16,42.47 4.71,43.66 4.25,44.84 3.74,45.98 3.23,47.11 2.35,48.07 1.47,49.03 0.30,50.25 -0.86,51.47 -1.82,52.86 -2.77,54.25 -3.76,55.71 -4.75,57.17 -5.69,59.12 -6.64,61.06 -7.91,63.09 -9.17,65.12 -10.58,67.33 -11.99,69.53 -13.23,71.45 -14.47,73.38 -15.11,74.95 -15.75,76.53 -17.01,78.15 -18.28,79.78 -19.10,81.07 -19.92,82.36 -20.40,83.61 -20.87,84.86 -21.13,85.31 -21.38,85.77 -21.77,86.12 -22.16,86.47 -22.64,86.68 -23.12,86.89 -23.64,86.93 -24.16,86.98 -24.66,86.85 -25.17,86.73 -25.61,86.45 -26.05,86.17 -26.38,85.76 -26.71,85.36 -26.89,84.87 -27.08,84.38 -27.09,83.86 -27.11,83.34 -26.96,82.84 -26.81,82.34 -26.50,81.91 -26.20,81.49 -25.78,81.18 -25.36,80.87 -24.86,80.72 -24.36,80.56 -23.84,80.57 -23.31,80.59 -22.82,80.76 -22.33,80.94 -21.92,81.27 -21.52,81.59 -21.23,82.03 -20.95,82.47 -20.82,82.98 -20.69,83.48 -20.73,84.00 -20.77,84.52 -20.98,85.00 -21.18,85.48 -21.53,85.87 -21.88,86.27 -22.33,86.52 -22.78,86.78 -23.30,86.88 -23.81,86.98 -24.33,86.92 -24.84,86.85 -25.31,86.62 -25.78,86.39 -26.15,86.02 -26.52,85.65 -26.76,85.19 -26.99,84.72 -27.06,84.20 -27.14,83.68 -27.04,83.17 -26.94,82.66 -26.94,82.66 -26.94,82.66 -25.24,79.83 -23.53,77.00 -22.73,76.08 -21.93,75.17 -21.16,73.88 -20.39,72.59 -19.28,70.47 -18.16,68.36 -17.63,67.24 -17.10,66.13 -16.40,64.92 -15.71,63.71 -14.84,61.90 -13.97,60.09 -13.12,58.97 -12.28,57.85 -11.98,56.37 -11.68,54.89 -10.45,53.54 -9.21,52.18 -8.45,51.05 -7.70,49.91 -7.16,48.95 -6.61,47.98 -5.55,46.90 -4.48,45.82 -3.22,44.62 -1.97,43.41 -1.56,41.83 -1.15,40.26 -1.08,38.75 -1.02,37.25 -0.93,35.73 -0.85,34.21 -0.78,33.12 -0.71,32.02 -0.62,30.49 -0.54,28.95 -0.54,27.57 -0.54,26.19 -0.52,24.96 -0.49,23.74 -0.46,21.34 -0.44,18.93 -0.33,17.18 -0.22,15.42 -0.27,13.69 -0.33,11.95 -0.34,10.54 -0.36,9.14 -0.69,6.24 -1.02,3.35 -1.57,2.20 -2.11,1.05 -2.21,0.79 -2.31,0.52 -2.33,0.23 -2.36,-0.04 -2.32,-0.32 -2.28,-0.61 -2.18,-0.87 -2.07,-1.14 -1.90,-1.37 -1.74,-1.60 -1.52,-1.79 -1.30,-1.97 -1.05,-2.10 -0.79,-2.23 -0.51,-2.29 -0.23,-2.35 0.04,-2.35 0.33,-2.34 0.60,-2.27 0.88,-2.19 1.13,-2.06 1.38,-1.92 1.59,-1.72 1.80,-1.53 1.96,-1.29 2.11,-1.05 2.11,-1.05 L 2.11,-1.05 Z"></path></g><g transform="translate(39 104) rotate(0 8 22)" stroke="none"><path fill="#000000" d="M 2.23,-1.11 Q 2.23,-1.11 3.01,0.65 3.78,2.42 4.25,3.92 4.71,5.42 5.47,7.26 6.22,9.11 6.53,10.60 6.85,12.08 7.58,13.98 8.31,15.87 8.88,17.60 9.45,19.33 10.01,20.85 10.57,22.38 11.15,23.93 11.73,25.48 12.26,26.44 12.78,27.41 12.98,28.77 13.18,30.13 14.09,31.73 15.00,33.32 15.51,34.32 16.02,35.31 16.55,36.30 17.07,37.29 18.14,39.95 19.22,42.60 19.32,43.16 19.42,43.71 19.33,44.27 19.25,44.84 18.99,45.34 18.73,45.84 18.32,46.24 17.92,46.63 17.40,46.88 16.89,47.12 16.33,47.19 15.77,47.26 15.21,47.15 14.66,47.03 14.17,46.74 13.68,46.46 13.30,46.03 12.93,45.60 12.71,45.08 12.50,44.55 12.46,43.99 12.42,43.42 12.57,42.87 12.71,42.33 13.02,41.85 13.34,41.38 13.78,41.03 14.23,40.68 14.77,40.49 15.30,40.31 15.87,40.30 16.44,40.29 16.98,40.47 17.52,40.64 17.97,40.98 18.43,41.32 18.75,41.78 19.07,42.25 19.23,42.79 19.39,43.34 19.37,43.90 19.34,44.47 19.14,45.00 18.94,45.53 18.58,45.96 18.21,46.40 17.73,46.70 17.25,47.00 16.70,47.13 16.14,47.26 15.58,47.20 15.02,47.15 14.50,46.92 13.98,46.68 13.56,46.30 13.15,45.91 12.88,45.42 12.60,44.92 12.60,44.92 12.60,44.92 12.01,42.59 11.41,40.27 10.90,39.22 10.39,38.18 9.59,36.73 8.80,35.29 8.04,33.83 7.27,32.37 7.41,31.16 7.54,29.95 6.75,28.33 5.95,26.70 5.41,24.71 4.87,22.71 4.40,21.01 3.92,19.30 3.54,17.34 3.16,15.38 2.61,14.36 2.06,13.34 1.60,11.10 1.15,8.87 0.67,7.79 0.19,6.71 -0.06,5.59 -0.33,4.47 -1.28,2.79 -2.23,1.11 -2.33,0.83 -2.43,0.55 -2.46,0.25 -2.50,-0.04 -2.45,-0.34 -2.41,-0.64 -2.30,-0.92 -2.19,-1.20 -2.01,-1.45 -1.83,-1.69 -1.60,-1.89 -1.37,-2.08 -1.11,-2.22 -0.84,-2.35 -0.54,-2.42 -0.25,-2.48 0.04,-2.48 0.35,-2.47 0.64,-2.39 0.93,-2.32 1.19,-2.17 1.46,-2.02 1.68,-1.82 1.90,-1.62 2.07,-1.36 2.23,-1.11 2.23,-1.11 L 2.23,-1.11 Z"></path></g><g transform="translate(10 67) rotate(0 32 6.5)" stroke="none"><path fill="#000000" d="M 0.77,-1.80 Q 0.77,-1.80 2.75,-0.86 4.72,0.07 7.16,0.75 9.59,1.42 11.57,2.01 13.55,2.61 15.85,3.48 18.16,4.35 20.56,5.31 22.97,6.26 24.92,7.28 26.86,8.29 27.92,8.56 28.97,8.83 31.09,9.55 33.21,10.28 34.38,10.44 35.55,10.59 36.71,10.31 37.87,10.02 39.29,9.39 40.72,8.75 43.04,7.50 45.35,6.24 46.59,5.37 47.83,4.49 49.21,3.92 50.58,3.36 53.08,2.58 55.58,1.81 57.00,0.72 58.42,-0.37 60.50,-1.81 62.59,-3.24 63.00,-3.36 63.41,-3.49 63.83,-3.47 64.26,-3.46 64.66,-3.31 65.06,-3.16 65.39,-2.89 65.72,-2.62 65.95,-2.26 66.18,-1.90 66.28,-1.49 66.38,-1.08 66.34,-0.65 66.30,-0.23 66.13,0.16 65.96,0.55 65.68,0.86 65.39,1.18 65.02,1.39 64.65,1.59 64.23,1.67 63.81,1.75 63.39,1.69 62.96,1.63 62.58,1.44 62.20,1.25 61.90,0.94 61.60,0.64 61.41,0.26 61.23,-0.11 61.17,-0.54 61.12,-0.96 61.20,-1.38 61.28,-1.80 61.49,-2.17 61.70,-2.54 62.02,-2.82 62.34,-3.10 62.73,-3.27 63.13,-3.44 63.55,-3.47 63.98,-3.50 64.39,-3.40 64.80,-3.29 65.16,-3.06 65.52,-2.83 65.79,-2.49 66.05,-2.16 66.20,-1.76 66.34,-1.36 66.35,-0.93 66.36,-0.51 66.23,-0.10 66.10,0.30 65.85,0.64 65.60,0.99 65.26,1.24 64.91,1.48 64.91,1.48 64.91,1.48 63.38,2.63 61.85,3.77 60.59,4.26 59.33,4.75 58.26,5.42 57.20,6.08 55.29,6.86 53.38,7.63 51.87,7.90 50.36,8.17 49.03,9.10 47.70,10.04 45.32,11.69 42.94,13.33 40.41,14.34 37.87,15.34 36.24,15.20 34.60,15.05 32.94,14.42 31.29,13.79 29.54,12.87 27.80,11.95 26.68,11.39 25.56,10.84 23.74,9.92 21.92,9.01 19.52,8.12 17.12,7.23 14.89,6.47 12.65,5.71 10.71,5.17 8.77,4.64 6.05,4.00 3.32,3.37 1.27,2.58 -0.77,1.80 -0.97,1.68 -1.18,1.56 -1.35,1.40 -1.52,1.23 -1.65,1.03 -1.77,0.83 -1.85,0.61 -1.92,0.38 -1.94,0.15 -1.96,-0.08 -1.92,-0.31 -1.88,-0.55 -1.79,-0.76 -1.69,-0.98 -1.55,-1.17 -1.41,-1.36 -1.23,-1.51 -1.04,-1.66 -0.83,-1.76 -0.61,-1.86 -0.38,-1.91 -0.15,-1.95 0.08,-1.94 0.31,-1.93 0.54,-1.87 0.77,-1.80 0.77,-1.80 L 0.77,-1.80 Z"></path></g><g stroke-linecap="round"><g transform="translate(306.3333333333335 326.14583333333326) rotate(0 113.61121636529765 1.3407455757036928)"><path d="M-0.55 0.51 C37.22 1.02, 189.77 2.86, 227.78 2.95 M1.36 -0.27 C38.84 -0.05, 189.12 1.07, 226.62 1.44" stroke="#5c940d" stroke-width="1" fill="none"></path></g><g transform="translate(306.3333333333335 326.14583333333326) rotate(0 113.61121636529765 1.3407455757036928)"><path d="M226.77 -0.22 L211 6.28 L213.22 -6.99 L228.34 -0.44" stroke="none" stroke-width="0" fill="#5c940d" fill-rule="evenodd"></path><path d="M227.26 0.95 C222.69 2.98, 214.9 6.16, 212.65 8.4 M226.85 1.31 C223.91 2.37, 220.47 3.78, 212.66 7.14 M212.8 7.37 C212.12 4.52, 213.97 -1.03, 212.68 -5.3 M213.49 7.83 C212.41 4.43, 212.37 2.64, 213.23 -5.3 M211.83 -6.21 C217.03 -2.9, 220.71 -2.74, 226.97 0.47 M212.71 -4.46 C218.53 -2.96, 223.45 0.08, 227.22 1.47 M226.62 1.44 C226.62 1.44, 226.62 1.44, 226.62 1.44 M226.62 1.44 C226.62 1.44, 226.62 1.44, 226.62 1.44" stroke="#5c940d" stroke-width="1" fill="none"></path></g></g><g transform="translate(316.5 296) rotate(0 84 10.5)"><text x="0" y="15" font-family="Virgil, Segoe UI Emoji" font-size="16px" fill="#5c940d" text-anchor="start" style="white-space: pre;" direction="ltr">New Mini-Flux Cluster</text></g><g stroke-linecap="round" transform="translate(261 548.0625) rotate(0 52.84375 19.46875)"><path d="M9.73 0 M9.73 0 C35.31 0, 60.88 0, 95.95 0 M9.73 0 C43.06 0, 76.39 0, 95.95 0 M95.95 0 C102.44 0, 105.69 3.24, 105.69 9.73 M95.95 0 C102.44 0, 105.69 3.24, 105.69 9.73 M105.69 9.73 C105.69 13.81, 105.69 17.89, 105.69 29.2 M105.69 9.73 C105.69 16.11, 105.69 22.49, 105.69 29.2 M105.69 29.2 C105.69 35.69, 102.44 38.94, 95.95 38.94 M105.69 29.2 C105.69 35.69, 102.44 38.94, 95.95 38.94 M95.95 38.94 C72.09 38.94, 48.22 38.94, 9.73 38.94 M95.95 38.94 C77.55 38.94, 59.15 38.94, 9.73 38.94 M9.73 38.94 C3.24 38.94, 0 35.69, 0 29.2 M9.73 38.94 C3.24 38.94, 0 35.69, 0 29.2 M0 29.2 C0 24.84, 0 20.47, 0 9.73 M0 29.2 C0 24.86, 0 20.51, 0 9.73 M0 9.73 C0 3.24, 3.24 0, 9.73 0 M0 9.73 C0 3.24, 3.24 0, 9.73 0" stroke="#0b7285" stroke-width="1" fill="none"></path></g><g stroke-linecap="round" transform="translate(261 499.78125) rotate(0 52.84375 19.96875)"><path d="M9.98 0 M9.98 0 C27.76 0, 45.53 0, 95.7 0 M9.98 0 C39.4 0, 68.82 0, 95.7 0 M95.7 0 C102.36 0, 105.69 3.33, 105.69 9.98 M95.7 0 C102.36 0, 105.69 3.33, 105.69 9.98 M105.69 9.98 C105.69 17.28, 105.69 24.58, 105.69 29.95 M105.69 9.98 C105.69 16.44, 105.69 22.9, 105.69 29.95 M105.69 29.95 C105.69 36.61, 102.36 39.94, 95.7 39.94 M105.69 29.95 C105.69 36.61, 102.36 39.94, 95.7 39.94 M95.7 39.94 C74.07 39.94, 52.44 39.94, 9.98 39.94 M95.7 39.94 C77.22 39.94, 58.74 39.94, 9.98 39.94 M9.98 39.94 C3.33 39.94, 0 36.61, 0 29.95 M9.98 39.94 C3.33 39.94, 0 36.61, 0 29.95 M0 29.95 C0 23.3, 0 16.65, 0 9.98 M0 29.95 C0 23.77, 0 17.59, 0 9.98 M0 9.98 C0 3.33, 3.33 0, 9.98 0 M0 9.98 C0 3.33, 3.33 0, 9.98 0" stroke="#0b7285" stroke-width="1" fill="none"></path></g><g stroke-linecap="round" transform="translate(372.25 500) rotate(0 52.84375 19.46875)"><path d="M9.73 0 M9.73 0 C41.12 0, 72.5 0, 95.95 0 M9.73 0 C35.08 0, 60.43 0, 95.95 0 M95.95 0 C102.44 0, 105.69 3.24, 105.69 9.73 M95.95 0 C102.44 0, 105.69 3.24, 105.69 9.73 M105.69 9.73 C105.69 16.79, 105.69 23.84, 105.69 29.2 M105.69 9.73 C105.69 14.01, 105.69 18.29, 105.69 29.2 M105.69 29.2 C105.69 35.69, 102.44 38.94, 95.95 38.94 M105.69 29.2 C105.69 35.69, 102.44 38.94, 95.95 38.94 M95.95 38.94 C72.91 38.94, 49.88 38.94, 9.73 38.94 M95.95 38.94 C66.05 38.94, 36.15 38.94, 9.73 38.94 M9.73 38.94 C3.24 38.94, 0 35.69, 0 29.2 M9.73 38.94 C3.24 38.94, 0 35.69, 0 29.2 M0 29.2 C0 22.51, 0 15.82, 0 9.73 M0 29.2 C0 24.2, 0 19.19, 0 9.73 M0 9.73 C0 3.24, 3.24 0, 9.73 0 M0 9.73 C0 3.24, 3.24 0, 9.73 0" stroke="#0b7285" stroke-width="1" fill="none"></path></g><g stroke-linecap="round" transform="translate(375.03125 547.28125) rotate(0 52.84375 19.46875)"><path d="M9.73 0 M9.73 0 C32.13 0, 54.52 0, 95.95 0 M9.73 0 C30.43 0, 51.12 0, 95.95 0 M95.95 0 C102.44 0, 105.69 3.24, 105.69 9.73 M95.95 0 C102.44 0, 105.69 3.24, 105.69 9.73 M105.69 9.73 C105.69 16.82, 105.69 23.91, 105.69 29.2 M105.69 9.73 C105.69 14.74, 105.69 19.75, 105.69 29.2 M105.69 29.2 C105.69 35.69, 102.44 38.94, 95.95 38.94 M105.69 29.2 C105.69 35.69, 102.44 38.94, 95.95 38.94 M95.95 38.94 C72.34 38.94, 48.73 38.94, 9.73 38.94 M95.95 38.94 C63.05 38.94, 30.15 38.94, 9.73 38.94 M9.73 38.94 C3.24 38.94, 0 35.69, 0 29.2 M9.73 38.94 C3.24 38.94, 0 35.69, 0 29.2 M0 29.2 C0 23.17, 0 17.14, 0 9.73 M0 29.2 C0 21.8, 0 14.4, 0 9.73 M0 9.73 C0 3.24, 3.24 0, 9.73 0 M0 9.73 C0 3.24, 3.24 0, 9.73 0" stroke="#0b7285" stroke-width="1" fill="none"></path></g><g stroke-linecap="round" transform="translate(249 470) rotate(0 122.5 190)"><path d="M61.25 0 M61.25 0 C90.58 0, 119.91 0, 183.75 0 M61.25 0 C103.68 0, 146.12 0, 183.75 0 M183.75 0 C224.58 0, 245 20.42, 245 61.25 M183.75 0 C224.58 0, 245 20.42, 245 61.25 M245 61.25 C245 127, 245 192.74, 245 318.75 M245 61.25 C245 120.91, 245 180.57, 245 318.75 M245 318.75 C245 359.58, 224.58 380, 183.75 380 M245 318.75 C245 359.58, 224.58 380, 183.75 380 M183.75 380 C142.61 380, 101.47 380, 61.25 380 M183.75 380 C135.33 380, 86.91 380, 61.25 380 M61.25 380 C20.42 380, 0 359.58, 0 318.75 M61.25 380 C20.42 380, 0 359.58, 0 318.75 M0 318.75 C0 262.1, 0 205.46, 0 61.25 M0 318.75 C0 231.87, 0 144.99, 0 61.25 M0 61.25 C0 20.42, 20.42 0, 61.25 0 M0 61.25 C0 20.42, 20.42 0, 61.25 0" stroke="#5c940d" stroke-width="1" fill="none"></path></g><g transform="translate(291.5 860) rotate(0 81.5 13)"><text x="0" y="18" font-family="Virgil, Segoe UI Emoji" font-size="20px" fill="#5c940d" text-anchor="start" style="white-space: pre;" direction="ltr">Mini-Flux Cluster</text></g><g stroke-linecap="round"><g transform="translate(554.5 293.5) rotate(0 -133.99400887899094 88.39740222506225)"><path d="M-0.02 0.08 C-44.65 29.44, -223.34 147.07, -267.97 176.72" stroke="#5c940d" stroke-width="1.5" fill="none" stroke-dasharray="8 9"></path></g></g><g stroke-linecap="round"><g transform="translate(552.5 434.5) rotate(0 -29.845636741444423 188.36885373406108)"><path d="M0.02 -1.08 C-9.96 62.05, -49.83 314.74, -59.71 377.82" stroke="#5c940d" stroke-width="1.5" fill="none" stroke-dasharray="8 9"></path></g></g><g transform="translate(283.5 512) rotate(0 30.5 10.5)"><text x="0" y="15" font-family="Virgil, Segoe UI Emoji" font-size="16px" fill="#0b7285" text-anchor="start" style="white-space: pre;" direction="ltr">Brokers</text></g><g transform="translate(387 511) rotate(0 39 10.5)"><text x="0" y="15" font-family="Virgil, Segoe UI Emoji" font-size="16px" fill="#0b7285" text-anchor="start" style="white-space: pre;" direction="ltr">FluxConfig</text></g><g transform="translate(278 554) rotate(0 22.5 10.5)"><text x="0" y="15" font-family="Virgil, Segoe UI Emoji" font-size="16px" fill="#0b7285" text-anchor="start" style="white-space: pre;" direction="ltr">Certs</text></g><g transform="translate(388 555) rotate(0 40 10.5)"><text x="0" y="15" font-family="Virgil, Segoe UI Emoji" font-size="16px" fill="#0b7285" text-anchor="start" style="white-space: pre;" direction="ltr">EtcHosts?</text></g><g stroke-linecap="round" transform="translate(266.5 610.5) rotate(0 31 31)"><path d="M1.17 -1.41 C17.96 -1.74, 36.83 -1.12, 60.28 0.99 M60.13 -1.45 C61.45 14.63, 60.3 30.37, 63.9 61.7 M60.79 62.12 C46.31 64.36, 30.95 61.4, 0.47 63.4 M0.55 61.86 C0.12 47.62, 1.07 34.61, 1.18 0.06" stroke="#0b7285" stroke-width="1.5" fill="none" stroke-dasharray="8 9"></path></g><g stroke-linecap="round" transform="translate(340.5 609.5) rotate(0 31 31)"><path d="M0.71 -0.94 C15.55 0.13, 30.15 -1.41, 63.62 -1.04 M61.71 -0.54 C62.34 23.06, 63.58 47.8, 62.21 63.36 M60.76 60.29 C40.8 63.82, 20.51 61.8, 1.79 61.81 M-0.91 62.43 C-0.41 47.56, -1 29.65, 0.07 1.37" stroke="#0b7285" stroke-width="1.5" fill="none" stroke-dasharray="8 9"></path></g><g stroke-linecap="round" transform="translate(416.5 609.5) rotate(0 31 31)"><path d="M1.93 -1.64 C22.85 -0.76, 45.54 -0.12, 63.06 1.44 M63.72 1.99 C63.8 24.08, 61.24 46.71, 61.17 63.99 M61.72 62.32 C46.22 61.09, 33.68 63.92, 1.61 63.27 M-1 60.8 C-0.59 38.43, 0.77 16.21, -1.55 1.37" stroke="#0b7285" stroke-width="1.5" fill="none" stroke-dasharray="8 9"></path></g><g stroke-linecap="round" transform="translate(266.5 684) rotate(0 31 31)"><path d="M1.95 0.24 C11.42 1.14, 25.28 -1.49, 63.4 1.46 M60.38 1.2 C60.94 11.46, 61.57 24.97, 63.87 60.95 M62.44 63.95 C47.27 61.95, 31.82 63.5, -1.99 60.43 M0.29 62.51 C0.85 47.33, -1.23 32.13, -1.57 1.4" stroke="#0b7285" stroke-width="1.5" fill="none" stroke-dasharray="8 9"></path></g><g stroke-linecap="round" transform="translate(340.5 683) rotate(0 31 31)"><path d="M0.24 -1.9 C25.58 -1.96, 47.26 0.79, 63.46 -1.77 M63.2 -1.44 C60.86 21.65, 61.26 46.8, 60.95 60.8 M63.95 62.16 C46.47 61.73, 32.93 60.14, -1.57 60.88 M0.51 62.41 C0.92 46.13, 0.86 32.03, 1.4 -1.48" stroke="#0b7285" stroke-width="1.5" fill="none" stroke-dasharray="8 9"></path></g><g stroke-linecap="round" transform="translate(416.5 683) rotate(0 31 31)"><path d="M-1.9 1.27 C18.59 -1.43, 41.3 1.39, 60.23 1.25 M60.56 -1.64 C60.69 22.36, 63.37 46.15, 60.8 60.87 M62.16 61.56 C39.12 63.72, 15.07 61.04, -1.12 60.58 M0.41 62.46 C-1.76 48.43, -1.66 35.48, -1.48 -1.83" stroke="#0b7285" stroke-width="1.5" fill="none" stroke-dasharray="8 9"></path></g><g stroke-linecap="round" transform="translate(266.5 759) rotate(0 31 31)"><path d="M1.58 -0.19 C15 0.22, 35.09 0.32, 61.31 -1.2 M63.65 0.47 C61.49 19.65, 62.69 38.52, 63.04 63.97 M62.65 60.39 C44.63 60.99, 30.06 60.05, -0.98 60.47 M-1.04 60.87 C0.48 51.17, 2.24 39.11, -0.86 0.31" stroke="#0b7285" stroke-width="1.5" fill="none" stroke-dasharray="8 9"></path></g><g stroke-linecap="round" transform="translate(340.5 758) rotate(0 31 31)"><path d="M-0.19 -1.64 C17.39 1.32, 34.24 -1.18, 60.8 -0.03 M62.47 -0.45 C62.86 18.8, 63.25 37.16, 63.97 61.33 M60.39 61.15 C39.31 63.29, 16.15 61.22, -1.53 60.01 M-1.13 62 C2.17 49.98, 2.52 33.58, 0.31 -1.65" stroke="#0b7285" stroke-width="1.5" fill="none" stroke-dasharray="8 9"></path></g><g stroke-linecap="round" transform="translate(416.5 758) rotate(0 31 31)"><path d="M-1.64 0.63 C24.51 0.78, 44.7 -1.14, 61.97 -0.17 M61.55 1.16 C63.26 17.2, 63.55 33.3, 61.33 63.17 M61.15 61.55 C50.14 60.12, 35.12 59.97, -1.99 60.45 M0 63.59 C2.09 51.16, -0.53 36.74, -1.65 -1.73" stroke="#0b7285" stroke-width="1.5" fill="none" stroke-dasharray="8 9"></path></g><g transform="translate(345.5 703.5) rotate(0 26 10.5)"><text x="26" y="15" font-family="Virgil, Segoe UI Emoji" font-size="16px" fill="#0b7285" text-anchor="middle" style="white-space: pre;" direction="ltr">driver</text></g><g transform="translate(271.5 620.5) rotate(0 26 21)"><text x="26" y="15" font-family="Virgil, Segoe UI Emoji" font-size="16px" fill="#0b7285" text-anchor="middle" style="white-space: pre;" direction="ltr">flux</text><text x="26" y="36" font-family="Virgil, Segoe UI Emoji" font-size="16px" fill="#0b7285" text-anchor="middle" style="white-space: pre;" direction="ltr">pod</text></g><g transform="translate(345.5 619.5) rotate(0 26 21)"><text x="26" y="15" font-family="Virgil, Segoe UI Emoji" font-size="16px" fill="#0b7285" text-anchor="middle" style="white-space: pre;" direction="ltr">flux </text><text x="26" y="36" font-family="Virgil, Segoe UI Emoji" font-size="16px" fill="#0b7285" text-anchor="middle" style="white-space: pre;" direction="ltr">pod</text></g><g transform="translate(421.5 619.5) rotate(0 26 21)"><text x="26" y="15" font-family="Virgil, Segoe UI Emoji" font-size="16px" fill="#0b7285" text-anchor="middle" style="white-space: pre;" direction="ltr">flux </text><text x="26" y="36" font-family="Virgil, Segoe UI Emoji" font-size="16px" fill="#0b7285" text-anchor="middle" style="white-space: pre;" direction="ltr">pod</text></g><g transform="translate(271.5 694) rotate(0 26 21)"><text x="26" y="15" font-family="Virgil, Segoe UI Emoji" font-size="16px" fill="#0b7285" text-anchor="middle" style="white-space: pre;" direction="ltr">flux </text><text x="26" y="36" font-family="Virgil, Segoe UI Emoji" font-size="16px" fill="#0b7285" text-anchor="middle" style="white-space: pre;" direction="ltr">pod</text></g><g transform="translate(421.5 693) rotate(0 26 21)"><text x="26" y="15" font-family="Virgil, Segoe UI Emoji" font-size="16px" fill="#0b7285" text-anchor="middle" style="white-space: pre;" direction="ltr">flux </text><text x="26" y="36" font-family="Virgil, Segoe UI Emoji" font-size="16px" fill="#0b7285" text-anchor="middle" style="white-space: pre;" direction="ltr">pod</text></g><g transform="translate(271.5 769) rotate(0 26 21)"><text x="26" y="15" font-family="Virgil, Segoe UI Emoji" font-size="16px" fill="#0b7285" text-anchor="middle" style="white-space: pre;" direction="ltr">flux </text><text x="26" y="36" font-family="Virgil, Segoe UI Emoji" font-size="16px" fill="#0b7285" text-anchor="middle" style="white-space: pre;" direction="ltr">pod</text></g><g transform="translate(345.5 768) rotate(0 26 21)"><text x="26" y="15" font-family="Virgil, Segoe UI Emoji" font-size="16px" fill="#0b7285" text-anchor="middle" style="white-space: pre;" direction="ltr">flux </text><text x="26" y="36" font-family="Virgil, Segoe UI Emoji" font-size="16px" fill="#0b7285" text-anchor="middle" style="white-space: pre;" direction="ltr">pod</text></g><g transform="translate(421.5 768) rotate(0 26 21)"><text x="26" y="15" font-family="Virgil, Segoe UI Emoji" font-size="16px" fill="#0b7285" text-anchor="middle" style="white-space: pre;" direction="ltr">flux </text><text x="26" y="36" font-family="Virgil, Segoe UI Emoji" font-size="16px" fill="#0b7285" text-anchor="middle" style="white-space: pre;" direction="ltr">pod</text></g></svg>